<svg width="1811" height="188" viewBox="0 0 1811 188" fill="none" xmlns="http://www.w3.org/2000/svg">
<path d="M616.54 151C615.847 151 615.5 150.437 615.5 149.31C615.5 148.27 615.847 147.75 616.54 147.75H618.23C621.697 147.75 624.383 147.1 626.29 145.8C628.197 144.413 629.15 141.857 629.15 138.13V68.71C629.15 64.8967 628.197 62.34 626.29 61.04C624.383 59.6533 621.697 58.96 618.23 58.96H616.54C615.933 58.96 615.63 58.3967 615.63 57.27C615.63 56.23 615.933 55.71 616.54 55.71C623.82 55.5367 630.84 55.45 637.6 55.45C646.267 55.45 653.243 55.58 658.53 55.84C666.157 56.1867 673.48 58.0067 680.5 61.3C687.52 64.5933 693.327 69.75 697.92 76.77C702.6 83.7033 704.94 92.5433 704.94 103.29C704.94 114.037 702.6 122.92 697.92 129.94C693.327 136.873 687.52 142.03 680.5 145.41C673.48 148.703 666.157 150.523 658.53 150.87C655.237 151.043 648.737 151.13 639.03 151.13L616.54 151ZM655.41 147.1C660.263 147.1 665.203 145.887 670.23 143.46C675.343 141.033 679.72 136.57 683.36 130.07C687.087 123.57 688.95 114.643 688.95 103.29C688.95 91.9367 687.087 83.0533 683.36 76.64C679.72 70.14 675.387 65.6767 670.36 63.25C665.333 60.8233 660.35 59.61 655.41 59.61H654.5C650.513 59.61 647.697 60.2167 646.05 61.43C644.403 62.6433 643.58 64.7667 643.58 67.8V139.04C643.58 142.073 644.403 144.197 646.05 145.41C647.697 146.537 650.513 147.1 654.5 147.1H655.41ZM812.047 147.75C812.393 147.75 812.61 147.923 812.697 148.27C812.783 148.617 812.827 149.007 812.827 149.44C812.827 150.48 812.567 151 812.047 151H771.097C770.49 151 770.187 150.48 770.187 149.44C770.187 148.313 770.49 147.75 771.097 147.75C778.983 147.577 782.927 145.54 782.927 141.64C782.927 140.687 782.537 139.127 781.757 136.96L775.127 117.72H741.457L735.347 135.14C734.74 137.22 734.437 138.78 734.437 139.82C734.437 145.107 738.683 147.75 747.177 147.75C747.783 147.75 748.087 148.313 748.087 149.44C748.087 150.48 747.783 151 747.177 151H714.547C713.94 151 713.637 150.48 713.637 149.44C713.637 148.313 713.94 147.75 714.547 147.75C717.32 147.75 720.007 146.883 722.607 145.15C725.207 143.33 727.287 140.383 728.847 136.31C730.667 131.89 740.027 107.19 756.927 62.21L759.267 55.97L766.937 53.76C767.89 53.76 768.497 54.1933 768.757 55.06L773.957 70.14C777.163 79.24 781.54 91.85 787.087 107.97C792.633 124.003 795.927 133.407 796.967 136.18C798.267 139.473 799.61 141.943 800.997 143.59C802.383 145.237 803.9 146.363 805.547 146.97C807.28 147.49 809.447 147.75 812.047 147.75ZM773.437 112.91L758.877 70.53C756.71 75.9033 751.467 90.03 743.147 112.91H773.437ZM820.517 151C819.997 151 819.737 150.437 819.737 149.31C819.737 148.27 819.997 147.75 820.517 147.75H822.207C824.98 147.75 827.494 146.71 829.747 144.63C832.087 142.55 833.257 139.82 833.257 136.44V67.8C832.477 64.94 831.22 62.86 829.487 61.56C827.84 60.1733 825.457 59.35 822.337 59.09L820.517 58.96C819.91 58.8733 819.607 58.3533 819.607 57.4C819.607 56.2733 819.91 55.71 820.517 55.71H846.127L895.917 126.95V70.27C895.917 66.89 894.704 64.16 892.277 62.08C889.937 60 887.424 58.96 884.737 58.96H883.047C882.44 58.96 882.137 58.44 882.137 57.4C882.137 56.2733 882.44 55.71 883.047 55.71H913.727C914.16 55.71 914.42 55.84 914.507 56.1C914.68 56.36 914.767 56.7933 914.767 57.4C914.767 58.44 914.42 58.96 913.727 58.96H912.167C909.307 58.96 906.75 60 904.497 62.08C902.244 64.0733 901.117 66.8033 901.117 70.27V151H894.487L838.457 70.27V136.44C838.457 139.907 839.627 142.68 841.967 144.76C844.394 146.753 846.994 147.75 849.767 147.75H851.327C851.934 147.75 852.237 148.27 852.237 149.31C852.237 150.437 851.934 151 851.327 151H820.517ZM927.188 151C926.582 151 926.278 150.437 926.278 149.31C926.278 148.183 926.582 147.62 927.188 147.62H929.008C932.562 147.62 935.248 146.927 937.068 145.54C938.975 144.153 939.928 141.64 939.928 138L940.058 68.71C940.058 64.9833 939.062 62.4267 937.068 61.04C935.162 59.6533 932.475 58.96 929.008 58.96H927.188C926.582 58.96 926.278 58.44 926.278 57.4C926.278 56.2733 926.582 55.71 927.188 55.71H967.618C968.052 55.71 968.312 55.84 968.398 56.1C968.572 56.36 968.658 56.7933 968.658 57.4C968.658 58.44 968.312 58.96 967.618 58.96H965.928C962.375 58.96 959.645 59.6533 957.738 61.04C955.918 62.4267 955.008 64.9833 955.008 68.71L954.878 138C954.878 141.727 955.832 144.283 957.738 145.67C959.645 146.97 962.375 147.62 965.928 147.62H967.618C968.312 147.62 968.658 148.183 968.658 149.31C968.658 150.437 968.312 151 967.618 151H927.188ZM1065.36 126.04C1066.05 126.3 1066.4 126.777 1066.4 127.47C1066.4 127.817 1066.18 128.51 1065.75 129.55C1063.15 136.137 1060.5 143.287 1057.82 151H982.416C981.723 151 981.376 150.437 981.376 149.31C981.376 148.27 981.723 147.75 982.416 147.75H984.106C987.573 147.75 990.259 147.057 992.166 145.67C994.159 144.283 995.156 141.727 995.156 138V68.71C995.156 64.9833 994.159 62.4267 992.166 61.04C990.173 59.6533 987.486 58.96 984.106 58.96H982.416C981.723 58.96 981.376 58.3967 981.376 57.27C981.376 56.23 981.723 55.71 982.416 55.71H1054.31C1055.95 58.57 1057.77 61.8633 1059.77 65.59C1061.85 69.3167 1062.93 71.3967 1063.02 71.83C1063.1 72.0033 1063.15 72.22 1063.15 72.48C1063.15 72.9133 1062.84 73.26 1062.24 73.52C1061.98 73.6933 1061.63 73.78 1061.2 73.78C1060.68 73.78 1060.29 73.65 1060.03 73.39C1056.3 69.5767 1051.49 66.3267 1045.6 63.64C1039.7 60.8667 1033.59 59.48 1027.27 59.48H1024.54C1020.98 59.48 1018.25 59.6533 1016.35 60C1014.44 60.26 1012.92 60.9533 1011.8 62.08C1010.67 63.2067 1010.11 65.0267 1010.11 67.54V99.39H1020.9C1025.92 99.39 1029.26 99.3467 1030.91 99.26C1034.55 99.1733 1037.41 97.9167 1039.49 95.49C1041.65 92.9767 1042.74 90.03 1042.74 86.65C1042.74 86.3033 1042.87 86.0867 1043.13 86C1043.39 85.8267 1043.78 85.74 1044.3 85.74C1045.42 85.74 1045.99 86.0433 1045.99 86.65V116.81C1045.99 117.417 1045.42 117.72 1044.3 117.72C1043.78 117.72 1043.39 117.677 1043.13 117.59C1042.87 117.417 1042.74 117.157 1042.74 116.81C1042.74 113.43 1041.65 110.483 1039.49 107.97C1037.41 105.457 1034.55 104.157 1030.91 104.07C1029.26 103.983 1025.92 103.94 1020.9 103.94H1010.11V139.04C1010.11 142.073 1010.97 144.153 1012.71 145.28C1014.53 146.32 1017.43 146.97 1021.42 147.23C1022.46 147.317 1024.02 147.36 1026.1 147.36C1028 147.36 1029.52 147.317 1030.65 147.23C1036.02 146.883 1040.74 145.627 1044.82 143.46C1048.89 141.293 1052.27 138.867 1054.96 136.18C1057.64 133.407 1060.42 130.113 1063.28 126.3C1063.54 125.953 1063.93 125.78 1064.45 125.78C1064.71 125.78 1065.01 125.867 1065.36 126.04ZM1079.15 151C1078.54 151 1078.24 150.437 1078.24 149.31C1078.24 148.183 1078.54 147.62 1079.15 147.62H1080.97C1084.52 147.62 1087.25 146.97 1089.16 145.67C1091.07 144.283 1092.02 141.727 1092.02 138V68.71C1092.02 64.9833 1091.02 62.4267 1089.03 61.04C1087.04 59.6533 1084.35 58.96 1080.97 58.96H1079.15C1078.54 58.96 1078.24 58.3967 1078.24 57.27C1078.24 56.23 1078.54 55.71 1079.15 55.71H1119.71C1120.14 55.71 1120.4 55.84 1120.49 56.1C1120.66 56.36 1120.75 56.7933 1120.75 57.4C1120.75 58.44 1120.4 58.96 1119.71 58.96H1118.02C1114.55 58.96 1111.82 59.6533 1109.83 61.04C1107.92 62.4267 1106.97 64.9833 1106.97 68.71V139.04C1106.97 142.073 1107.84 144.11 1109.57 145.15C1111.39 146.19 1114.29 146.84 1118.28 147.1L1121.27 147.23L1125.69 147.1C1133.32 146.84 1139.64 144.76 1144.67 140.86C1149.78 136.96 1154.38 132.107 1158.45 126.3C1158.8 125.953 1159.14 125.78 1159.49 125.78C1159.58 125.78 1159.97 125.867 1160.66 126.04C1161.27 126.3 1161.57 126.733 1161.57 127.34L1161.44 127.99L1159.36 133.45L1152.86 151H1079.15ZM1184.51 152.95C1182.17 152.95 1180.17 152.127 1178.53 150.48C1176.97 148.833 1176.19 146.883 1176.19 144.63C1176.19 142.377 1176.97 140.47 1178.53 138.91C1180.17 137.263 1182.17 136.44 1184.51 136.44C1186.76 136.44 1188.71 137.263 1190.36 138.91C1192 140.47 1192.83 142.377 1192.83 144.63C1192.83 146.883 1192 148.833 1190.36 150.48C1188.71 152.127 1186.76 152.95 1184.51 152.95Z" fill="#3A4257"/>
<path d="M7.54 151C6.84667 151 6.5 150.437 6.5 149.31C6.5 148.27 6.84667 147.75 7.54 147.75H9.23C12.6967 147.75 15.3833 147.1 17.29 145.8C19.1967 144.413 20.15 141.857 20.15 138.13V68.71C20.15 64.8967 19.1967 62.34 17.29 61.04C15.3833 59.6533 12.6967 58.96 9.23 58.96H7.54C6.93333 58.96 6.63 58.3967 6.63 57.27C6.63 56.23 6.93333 55.71 7.54 55.71C14.82 55.5367 21.84 55.45 28.6 55.45C37.2667 55.45 44.2433 55.58 49.53 55.84C57.1567 56.1867 64.48 58.0067 71.5 61.3C78.52 64.5933 84.3267 69.75 88.92 76.77C93.6 83.7033 95.94 92.5433 95.94 103.29C95.94 114.037 93.6 122.92 88.92 129.94C84.3267 136.873 78.52 142.03 71.5 145.41C64.48 148.703 57.1567 150.523 49.53 150.87C46.2367 151.043 39.7367 151.13 30.03 151.13L7.54 151ZM46.41 147.1C51.2633 147.1 56.2033 145.887 61.23 143.46C66.3433 141.033 70.72 136.57 74.36 130.07C78.0867 123.57 79.95 114.643 79.95 103.29C79.95 91.9367 78.0867 83.0533 74.36 76.64C70.72 70.14 66.3867 65.6767 61.36 63.25C56.3333 60.8233 51.35 59.61 46.41 59.61H45.5C41.5133 59.61 38.6967 60.2167 37.05 61.43C35.4033 62.6433 34.58 64.7667 34.58 67.8V139.04C34.58 142.073 35.4033 144.197 37.05 145.41C38.6967 146.537 41.5133 147.1 45.5 147.1H46.41ZM203.047 147.75C203.393 147.75 203.61 147.923 203.697 148.27C203.783 148.617 203.827 149.007 203.827 149.44C203.827 150.48 203.567 151 203.047 151H162.097C161.49 151 161.187 150.48 161.187 149.44C161.187 148.313 161.49 147.75 162.097 147.75C169.983 147.577 173.927 145.54 173.927 141.64C173.927 140.687 173.537 139.127 172.757 136.96L166.127 117.72H132.457L126.347 135.14C125.74 137.22 125.437 138.78 125.437 139.82C125.437 145.107 129.683 147.75 138.177 147.75C138.783 147.75 139.087 148.313 139.087 149.44C139.087 150.48 138.783 151 138.177 151H105.547C104.94 151 104.637 150.48 104.637 149.44C104.637 148.313 104.94 147.75 105.547 147.75C108.32 147.75 111.007 146.883 113.607 145.15C116.207 143.33 118.287 140.383 119.847 136.31C121.667 131.89 131.027 107.19 147.927 62.21L150.267 55.97L157.937 53.76C158.89 53.76 159.497 54.1933 159.757 55.06L164.957 70.14C168.163 79.24 172.54 91.85 178.087 107.97C183.633 124.003 186.927 133.407 187.967 136.18C189.267 139.473 190.61 141.943 191.997 143.59C193.383 145.237 194.9 146.363 196.547 146.97C198.28 147.49 200.447 147.75 203.047 147.75ZM164.437 112.91L149.877 70.53C147.71 75.9033 142.467 90.03 134.147 112.91H164.437ZM211.517 151C210.997 151 210.737 150.437 210.737 149.31C210.737 148.27 210.997 147.75 211.517 147.75H213.207C215.98 147.75 218.494 146.71 220.747 144.63C223.087 142.55 224.257 139.82 224.257 136.44V67.8C223.477 64.94 222.22 62.86 220.487 61.56C218.84 60.1733 216.457 59.35 213.337 59.09L211.517 58.96C210.91 58.8733 210.607 58.3533 210.607 57.4C210.607 56.2733 210.91 55.71 211.517 55.71H237.127L286.917 126.95V70.27C286.917 66.89 285.704 64.16 283.277 62.08C280.937 60 278.424 58.96 275.737 58.96H274.047C273.44 58.96 273.137 58.44 273.137 57.4C273.137 56.2733 273.44 55.71 274.047 55.71H304.727C305.16 55.71 305.42 55.84 305.507 56.1C305.68 56.36 305.767 56.7933 305.767 57.4C305.767 58.44 305.42 58.96 304.727 58.96H303.167C300.307 58.96 297.75 60 295.497 62.08C293.244 64.0733 292.117 66.8033 292.117 70.27V151H285.487L229.457 70.27V136.44C229.457 139.907 230.627 142.68 232.967 144.76C235.394 146.753 237.994 147.75 240.767 147.75H242.327C242.934 147.75 243.237 148.27 243.237 149.31C243.237 150.437 242.934 151 242.327 151H211.517ZM318.188 151C317.582 151 317.278 150.437 317.278 149.31C317.278 148.183 317.582 147.62 318.188 147.62H320.008C323.562 147.62 326.248 146.927 328.068 145.54C329.975 144.153 330.928 141.64 330.928 138L331.058 68.71C331.058 64.9833 330.062 62.4267 328.068 61.04C326.162 59.6533 323.475 58.96 320.008 58.96H318.188C317.582 58.96 317.278 58.44 317.278 57.4C317.278 56.2733 317.582 55.71 318.188 55.71H358.618C359.052 55.71 359.312 55.84 359.398 56.1C359.572 56.36 359.658 56.7933 359.658 57.4C359.658 58.44 359.312 58.96 358.618 58.96H356.928C353.375 58.96 350.645 59.6533 348.738 61.04C346.918 62.4267 346.008 64.9833 346.008 68.71L345.878 138C345.878 141.727 346.832 144.283 348.738 145.67C350.645 146.97 353.375 147.62 356.928 147.62H358.618C359.312 147.62 359.658 148.183 359.658 149.31C359.658 150.437 359.312 151 358.618 151H318.188ZM456.356 126.04C457.049 126.3 457.396 126.777 457.396 127.47C457.396 127.817 457.179 128.51 456.746 129.55C454.146 136.137 451.503 143.287 448.816 151H373.416C372.723 151 372.376 150.437 372.376 149.31C372.376 148.27 372.723 147.75 373.416 147.75H375.106C378.573 147.75 381.259 147.057 383.166 145.67C385.159 144.283 386.156 141.727 386.156 138V68.71C386.156 64.9833 385.159 62.4267 383.166 61.04C381.173 59.6533 378.486 58.96 375.106 58.96H373.416C372.723 58.96 372.376 58.3967 372.376 57.27C372.376 56.23 372.723 55.71 373.416 55.71H445.306C446.953 58.57 448.773 61.8633 450.766 65.59C452.846 69.3167 453.929 71.3967 454.016 71.83C454.103 72.0033 454.146 72.22 454.146 72.48C454.146 72.9133 453.843 73.26 453.236 73.52C452.976 73.6933 452.629 73.78 452.196 73.78C451.676 73.78 451.286 73.65 451.026 73.39C447.299 69.5767 442.489 66.3267 436.596 63.64C430.703 60.8667 424.593 59.48 418.266 59.48H415.536C411.983 59.48 409.253 59.6533 407.346 60C405.439 60.26 403.923 60.9533 402.796 62.08C401.669 63.2067 401.106 65.0267 401.106 67.54V99.39H411.896C416.923 99.39 420.259 99.3467 421.906 99.26C425.546 99.1733 428.406 97.9167 430.486 95.49C432.653 92.9767 433.736 90.03 433.736 86.65C433.736 86.3033 433.866 86.0867 434.126 86C434.386 85.8267 434.776 85.74 435.296 85.74C436.423 85.74 436.986 86.0433 436.986 86.65V116.81C436.986 117.417 436.423 117.72 435.296 117.72C434.776 117.72 434.386 117.677 434.126 117.59C433.866 117.417 433.736 117.157 433.736 116.81C433.736 113.43 432.653 110.483 430.486 107.97C428.406 105.457 425.546 104.157 421.906 104.07C420.259 103.983 416.923 103.94 411.896 103.94H401.106V139.04C401.106 142.073 401.973 144.153 403.706 145.28C405.526 146.32 408.429 146.97 412.416 147.23C413.456 147.317 415.016 147.36 417.096 147.36C419.003 147.36 420.519 147.317 421.646 147.23C427.019 146.883 431.743 145.627 435.816 143.46C439.889 141.293 443.269 138.867 445.956 136.18C448.643 133.407 451.416 130.113 454.276 126.3C454.536 125.953 454.926 125.78 455.446 125.78C455.706 125.78 456.009 125.867 456.356 126.04ZM470.151 151C469.544 151 469.241 150.437 469.241 149.31C469.241 148.183 469.544 147.62 470.151 147.62H471.971C475.524 147.62 478.254 146.97 480.161 145.67C482.068 144.283 483.021 141.727 483.021 138V68.71C483.021 64.9833 482.024 62.4267 480.031 61.04C478.038 59.6533 475.351 58.96 471.971 58.96H470.151C469.544 58.96 469.241 58.3967 469.241 57.27C469.241 56.23 469.544 55.71 470.151 55.71H510.711C511.144 55.71 511.404 55.84 511.491 56.1C511.664 56.36 511.751 56.7933 511.751 57.4C511.751 58.44 511.404 58.96 510.711 58.96H509.021C505.554 58.96 502.824 59.6533 500.831 61.04C498.924 62.4267 497.971 64.9833 497.971 68.71V139.04C497.971 142.073 498.838 144.11 500.571 145.15C502.391 146.19 505.294 146.84 509.281 147.1L512.271 147.23L516.691 147.1C524.318 146.84 530.644 144.76 535.671 140.86C540.784 136.96 545.378 132.107 549.451 126.3C549.798 125.953 550.144 125.78 550.491 125.78C550.578 125.78 550.968 125.867 551.661 126.04C552.268 126.3 552.571 126.733 552.571 127.34L552.441 127.99L550.361 133.45L543.861 151H470.151ZM575.506 152.95C573.166 152.95 571.173 152.127 569.526 150.48C567.966 148.833 567.186 146.883 567.186 144.63C567.186 142.377 567.966 140.47 569.526 138.91C571.173 137.263 573.166 136.44 575.506 136.44C577.759 136.44 579.709 137.263 581.356 138.91C583.003 140.47 583.826 142.377 583.826 144.63C583.826 146.883 583.003 148.833 581.356 150.48C579.709 152.127 577.759 152.95 575.506 152.95Z" fill="#E0C28F"/>
<path d="M1225.54 151C1224.85 151 1224.5 150.437 1224.5 149.31C1224.5 148.27 1224.85 147.75 1225.54 147.75H1227.23C1230.7 147.75 1233.38 147.1 1235.29 145.8C1237.2 144.413 1238.15 141.857 1238.15 138.13V68.71C1238.15 64.8967 1237.2 62.34 1235.29 61.04C1233.38 59.6533 1230.7 58.96 1227.23 58.96H1225.54C1224.93 58.96 1224.63 58.3967 1224.63 57.27C1224.63 56.23 1224.93 55.71 1225.54 55.71C1232.82 55.5367 1239.84 55.45 1246.6 55.45C1255.27 55.45 1262.24 55.58 1267.53 55.84C1275.16 56.1867 1282.48 58.0067 1289.5 61.3C1296.52 64.5933 1302.33 69.75 1306.92 76.77C1311.6 83.7033 1313.94 92.5433 1313.94 103.29C1313.94 114.037 1311.6 122.92 1306.92 129.94C1302.33 136.873 1296.52 142.03 1289.5 145.41C1282.48 148.703 1275.16 150.523 1267.53 150.87C1264.24 151.043 1257.74 151.13 1248.03 151.13L1225.54 151ZM1264.41 147.1C1269.26 147.1 1274.2 145.887 1279.23 143.46C1284.34 141.033 1288.72 136.57 1292.36 130.07C1296.09 123.57 1297.95 114.643 1297.95 103.29C1297.95 91.9367 1296.09 83.0533 1292.36 76.64C1288.72 70.14 1284.39 65.6767 1279.36 63.25C1274.33 60.8233 1269.35 59.61 1264.41 59.61H1263.5C1259.51 59.61 1256.7 60.2167 1255.05 61.43C1253.4 62.6433 1252.58 64.7667 1252.58 67.8V139.04C1252.58 142.073 1253.4 144.197 1255.05 145.41C1256.7 146.537 1259.51 147.1 1263.5 147.1H1264.41ZM1421.05 147.75C1421.39 147.75 1421.61 147.923 1421.7 148.27C1421.78 148.617 1421.83 149.007 1421.83 149.44C1421.83 150.48 1421.57 151 1421.05 151H1380.1C1379.49 151 1379.19 150.48 1379.19 149.44C1379.19 148.313 1379.49 147.75 1380.1 147.75C1387.98 147.577 1391.93 145.54 1391.93 141.64C1391.93 140.687 1391.54 139.127 1390.76 136.96L1384.13 117.72H1350.46L1344.35 135.14C1343.74 137.22 1343.44 138.78 1343.44 139.82C1343.44 145.107 1347.68 147.75 1356.18 147.75C1356.78 147.75 1357.09 148.313 1357.09 149.44C1357.09 150.48 1356.78 151 1356.18 151H1323.55C1322.94 151 1322.64 150.48 1322.64 149.44C1322.64 148.313 1322.94 147.75 1323.55 147.75C1326.32 147.75 1329.01 146.883 1331.61 145.15C1334.21 143.33 1336.29 140.383 1337.85 136.31C1339.67 131.89 1349.03 107.19 1365.93 62.21L1368.27 55.97L1375.94 53.76C1376.89 53.76 1377.5 54.1933 1377.76 55.06L1382.96 70.14C1386.16 79.24 1390.54 91.85 1396.09 107.97C1401.63 124.003 1404.93 133.407 1405.97 136.18C1407.27 139.473 1408.61 141.943 1410 143.59C1411.38 145.237 1412.9 146.363 1414.55 146.97C1416.28 147.49 1418.45 147.75 1421.05 147.75ZM1382.44 112.91L1367.88 70.53C1365.71 75.9033 1360.47 90.03 1352.15 112.91H1382.44ZM1429.52 151C1429 151 1428.74 150.437 1428.74 149.31C1428.74 148.27 1429 147.75 1429.52 147.75H1431.21C1433.98 147.75 1436.49 146.71 1438.75 144.63C1441.09 142.55 1442.26 139.82 1442.26 136.44V67.8C1441.48 64.94 1440.22 62.86 1438.49 61.56C1436.84 60.1733 1434.46 59.35 1431.34 59.09L1429.52 58.96C1428.91 58.8733 1428.61 58.3533 1428.61 57.4C1428.61 56.2733 1428.91 55.71 1429.52 55.71H1455.13L1504.92 126.95V70.27C1504.92 66.89 1503.7 64.16 1501.28 62.08C1498.94 60 1496.42 58.96 1493.74 58.96H1492.05C1491.44 58.96 1491.14 58.44 1491.14 57.4C1491.14 56.2733 1491.44 55.71 1492.05 55.71H1522.73C1523.16 55.71 1523.42 55.84 1523.51 56.1C1523.68 56.36 1523.77 56.7933 1523.77 57.4C1523.77 58.44 1523.42 58.96 1522.73 58.96H1521.17C1518.31 58.96 1515.75 60 1513.5 62.08C1511.24 64.0733 1510.12 66.8033 1510.12 70.27V151H1503.49L1447.46 70.27V136.44C1447.46 139.907 1448.63 142.68 1450.97 144.76C1453.39 146.753 1455.99 147.75 1458.77 147.75H1460.33C1460.93 147.75 1461.24 148.27 1461.24 149.31C1461.24 150.437 1460.93 151 1460.33 151H1429.52ZM1536.19 151C1535.58 151 1535.28 150.437 1535.28 149.31C1535.28 148.183 1535.58 147.62 1536.19 147.62H1538.01C1541.56 147.62 1544.25 146.927 1546.07 145.54C1547.97 144.153 1548.93 141.64 1548.93 138L1549.06 68.71C1549.06 64.9833 1548.06 62.4267 1546.07 61.04C1544.16 59.6533 1541.47 58.96 1538.01 58.96H1536.19C1535.58 58.96 1535.28 58.44 1535.28 57.4C1535.28 56.2733 1535.58 55.71 1536.19 55.71H1576.62C1577.05 55.71 1577.31 55.84 1577.4 56.1C1577.57 56.36 1577.66 56.7933 1577.66 57.4C1577.66 58.44 1577.31 58.96 1576.62 58.96H1574.93C1571.37 58.96 1568.64 59.6533 1566.74 61.04C1564.92 62.4267 1564.01 64.9833 1564.01 68.71L1563.88 138C1563.88 141.727 1564.83 144.283 1566.74 145.67C1568.64 146.97 1571.37 147.62 1574.93 147.62H1576.62C1577.31 147.62 1577.66 148.183 1577.66 149.31C1577.66 150.437 1577.31 151 1576.62 151H1536.19ZM1674.36 126.04C1675.05 126.3 1675.4 126.777 1675.4 127.47C1675.4 127.817 1675.18 128.51 1674.75 129.55C1672.15 136.137 1669.5 143.287 1666.82 151H1591.42C1590.72 151 1590.38 150.437 1590.38 149.31C1590.38 148.27 1590.72 147.75 1591.42 147.75H1593.11C1596.57 147.75 1599.26 147.057 1601.17 145.67C1603.16 144.283 1604.16 141.727 1604.16 138V68.71C1604.16 64.9833 1603.16 62.4267 1601.17 61.04C1599.17 59.6533 1596.49 58.96 1593.11 58.96H1591.42C1590.72 58.96 1590.38 58.3967 1590.38 57.27C1590.38 56.23 1590.72 55.71 1591.42 55.71H1663.31C1664.95 58.57 1666.77 61.8633 1668.77 65.59C1670.85 69.3167 1671.93 71.3967 1672.02 71.83C1672.1 72.0033 1672.15 72.22 1672.15 72.48C1672.15 72.9133 1671.84 73.26 1671.24 73.52C1670.98 73.6933 1670.63 73.78 1670.2 73.78C1669.68 73.78 1669.29 73.65 1669.03 73.39C1665.3 69.5767 1660.49 66.3267 1654.6 63.64C1648.7 60.8667 1642.59 59.48 1636.27 59.48H1633.54C1629.98 59.48 1627.25 59.6533 1625.35 60C1623.44 60.26 1621.92 60.9533 1620.8 62.08C1619.67 63.2067 1619.11 65.0267 1619.11 67.54V99.39H1629.9C1634.92 99.39 1638.26 99.3467 1639.91 99.26C1643.55 99.1733 1646.41 97.9167 1648.49 95.49C1650.65 92.9767 1651.74 90.03 1651.74 86.65C1651.74 86.3033 1651.87 86.0867 1652.13 86C1652.39 85.8267 1652.78 85.74 1653.3 85.74C1654.42 85.74 1654.99 86.0433 1654.99 86.65V116.81C1654.99 117.417 1654.42 117.72 1653.3 117.72C1652.78 117.72 1652.39 117.677 1652.13 117.59C1651.87 117.417 1651.74 117.157 1651.74 116.81C1651.74 113.43 1650.65 110.483 1648.49 107.97C1646.41 105.457 1643.55 104.157 1639.91 104.07C1638.26 103.983 1634.92 103.94 1629.9 103.94H1619.11V139.04C1619.11 142.073 1619.97 144.153 1621.71 145.28C1623.53 146.32 1626.43 146.97 1630.42 147.23C1631.46 147.317 1633.02 147.36 1635.1 147.36C1637 147.36 1638.52 147.317 1639.65 147.23C1645.02 146.883 1649.74 145.627 1653.82 143.46C1657.89 141.293 1661.27 138.867 1663.96 136.18C1666.64 133.407 1669.42 130.113 1672.28 126.3C1672.54 125.953 1672.93 125.78 1673.45 125.78C1673.71 125.78 1674.01 125.867 1674.36 126.04ZM1688.15 151C1687.54 151 1687.24 150.437 1687.24 149.31C1687.24 148.183 1687.54 147.62 1688.15 147.62H1689.97C1693.52 147.62 1696.25 146.97 1698.16 145.67C1700.07 144.283 1701.02 141.727 1701.02 138V68.71C1701.02 64.9833 1700.02 62.4267 1698.03 61.04C1696.04 59.6533 1693.35 58.96 1689.97 58.96H1688.15C1687.54 58.96 1687.24 58.3967 1687.24 57.27C1687.24 56.23 1687.54 55.71 1688.15 55.71H1728.71C1729.14 55.71 1729.4 55.84 1729.49 56.1C1729.66 56.36 1729.75 56.7933 1729.75 57.4C1729.75 58.44 1729.4 58.96 1728.71 58.96H1727.02C1723.55 58.96 1720.82 59.6533 1718.83 61.04C1716.92 62.4267 1715.97 64.9833 1715.97 68.71V139.04C1715.97 142.073 1716.84 144.11 1718.57 145.15C1720.39 146.19 1723.29 146.84 1727.28 147.1L1730.27 147.23L1734.69 147.1C1742.32 146.84 1748.64 144.76 1753.67 140.86C1758.78 136.96 1763.38 132.107 1767.45 126.3C1767.8 125.953 1768.14 125.78 1768.49 125.78C1768.58 125.78 1768.97 125.867 1769.66 126.04C1770.27 126.3 1770.57 126.733 1770.57 127.34L1770.44 127.99L1768.36 133.45L1761.86 151H1688.15ZM1793.51 152.95C1791.17 152.95 1789.17 152.127 1787.53 150.48C1785.97 148.833 1785.19 146.883 1785.19 144.63C1785.19 142.377 1785.97 140.47 1787.53 138.91C1789.17 137.263 1791.17 136.44 1793.51 136.44C1795.76 136.44 1797.71 137.263 1799.36 138.91C1801 140.47 1801.83 142.377 1801.83 144.63C1801.83 146.883 1801 148.833 1799.36 150.48C1797.71 152.127 1795.76 152.95 1793.51 152.95Z" fill="#E0C28F"/>
</svg>
