<svg width="63" height="30" viewBox="0 0 63 30" fill="none" xmlns="http://www.w3.org/2000/svg">
<path d="M4.392 29.376C3.56 29.376 2.83467 29.2267 2.216 28.928C1.61867 28.6507 1.16 28.2987 0.84 27.872C0.52 27.4667 0.36 27.0613 0.36 26.656C0.36 26.1867 0.509333 25.8133 0.808 25.536C1.10667 25.2587 1.43733 25.12 1.8 25.12C2.33333 25.12 2.888 25.3547 3.464 25.824C3.67733 26.016 4.072 26.432 4.648 27.072C5.13867 27.6267 5.56533 27.904 5.928 27.904C6.22667 27.904 6.49333 27.7653 6.728 27.488C7.112 27.104 7.38933 26.3893 7.56 25.344C7.752 24.32 7.848 22.912 7.848 21.12V3.744C7.848 2.82667 7.60267 2.208 7.112 1.888C6.62133 1.54667 5.94933 1.376 5.096 1.376H4.68C4.53067 1.376 4.456 1.23733 4.456 0.959999C4.456 0.682666 4.53067 0.543999 4.68 0.543999H14.632C14.7813 0.543999 14.856 0.682666 14.856 0.959999C14.856 1.23733 14.7813 1.376 14.632 1.376H14.216C13.3413 1.376 12.6693 1.54667 12.2 1.888C11.7307 2.22933 11.496 2.848 11.496 3.744V21.088C11.496 23.1573 11.1013 24.8107 10.312 26.048C9.52267 27.2853 8.584 28.1493 7.496 28.64C6.42933 29.1307 5.39467 29.376 4.392 29.376ZM17.9185 24C17.7478 24 17.6625 23.8613 17.6625 23.584C17.6625 23.328 17.7478 23.2 17.9185 23.2H18.3345C19.1878 23.2 19.8492 23.04 20.3185 22.72C20.7878 22.3787 21.0225 21.7493 21.0225 20.832V3.744C21.0225 2.80533 20.7878 2.176 20.3185 1.856C19.8492 1.51467 19.1878 1.344 18.3345 1.344H17.9185C17.7692 1.344 17.6945 1.20533 17.6945 0.927999C17.6945 0.671999 17.7692 0.543999 17.9185 0.543999C19.7105 0.501333 21.4385 0.48 23.1025 0.48C25.2358 0.48 26.9532 0.511999 28.2545 0.575998C30.1318 0.661332 31.9345 1.10933 33.6625 1.92C35.3905 2.73067 36.8198 4 37.9505 5.728C39.1025 7.43467 39.6785 9.61067 39.6785 12.256C39.6785 14.9013 39.1025 17.088 37.9505 18.816C36.8198 20.5227 35.3905 21.792 33.6625 22.624C31.9345 23.4347 30.1318 23.8827 28.2545 23.968C27.4438 24.0107 25.8438 24.032 23.4545 24.032L17.9185 24ZM27.4865 23.04C28.6812 23.04 29.8972 22.7413 31.1345 22.144C32.3932 21.5467 33.4705 20.448 34.3665 18.848C35.2838 17.248 35.7425 15.0507 35.7425 12.256C35.7425 9.46133 35.2838 7.27467 34.3665 5.696C33.4705 4.096 32.4038 2.99733 31.1665 2.4C29.9292 1.80267 28.7025 1.504 27.4865 1.504H27.2625C26.2812 1.504 25.5878 1.65333 25.1825 1.952C24.7772 2.25067 24.5745 2.77333 24.5745 3.52V21.056C24.5745 21.8027 24.7772 22.3253 25.1825 22.624C25.5878 22.9013 26.2812 23.04 27.2625 23.04H27.4865Z" fill="#3A4257"/>
<path d="M54.5233 0.543999C55.9526 0.607999 57.2859 0.885333 58.5233 1.376C59.7606 1.86667 60.7526 2.57067 61.4993 3.488C62.2459 4.40533 62.6193 5.48267 62.6193 6.72C62.6193 8.98133 61.7339 10.592 59.9633 11.552C58.2139 12.512 56.1659 13.0453 53.8193 13.152C53.3499 13.1733 52.6139 13.184 51.6113 13.184H50.1393V20.8C50.1393 21.7173 50.3739 22.3467 50.8433 22.688C51.3126 23.0293 51.9846 23.2 52.8593 23.2H53.3073C53.4566 23.2 53.5313 23.328 53.5313 23.584C53.5313 23.8613 53.4566 24 53.3073 24H43.3233C43.1739 24 43.0993 23.8613 43.0993 23.584C43.0993 23.328 43.1739 23.2 43.3233 23.2H43.7713C44.6033 23.2 45.2646 23.0293 45.7552 22.688C46.2459 22.3467 46.4913 21.7173 46.4913 20.8V3.744C46.4913 2.848 46.2459 2.22933 45.7552 1.888C45.2859 1.52533 44.6246 1.344 43.7713 1.344H43.3233C43.1739 1.344 43.0993 1.216 43.0993 0.959999C43.0993 0.682666 43.1739 0.543999 43.3233 0.543999L51.0033 0.511999C53.0513 0.511999 54.2246 0.522666 54.5233 0.543999ZM52.5713 12.256C54.7899 12.2133 56.3473 11.6907 57.2433 10.688C58.1393 9.68533 58.5873 8.32 58.5873 6.592C58.5873 5.26933 58.2459 4.224 57.5633 3.456C56.8806 2.688 56.0913 2.16533 55.1953 1.888C54.3206 1.58933 53.5206 1.44 52.7953 1.44C52.0273 1.44 51.3873 1.57867 50.8753 1.856C50.3846 2.13333 50.1393 2.67733 50.1393 3.488V12.288H51.0353C51.8033 12.288 52.3153 12.2773 52.5713 12.256Z" fill="#E0C28F"/>
</svg>
