<svg width="1797" height="188" viewBox="0 0 1797 188" fill="none" xmlns="http://www.w3.org/2000/svg">
<path d="M474.78 172.84C471.4 172.84 468.453 172.233 465.94 171.02C463.513 169.893 461.65 168.463 460.35 166.73C459.05 165.083 458.4 163.437 458.4 161.79C458.4 159.883 459.007 158.367 460.22 157.24C461.433 156.113 462.777 155.55 464.25 155.55C466.417 155.55 468.67 156.503 471.01 158.41C471.877 159.19 473.48 160.88 475.82 163.48C477.813 165.733 479.547 166.86 481.02 166.86C482.233 166.86 483.317 166.297 484.27 165.17C485.83 163.61 486.957 160.707 487.65 156.46C488.43 152.3 488.82 146.58 488.82 139.3V68.71C488.82 64.9833 487.823 62.47 485.83 61.17C483.837 59.7833 481.107 59.09 477.64 59.09H475.95C475.343 59.09 475.04 58.5267 475.04 57.4C475.04 56.2733 475.343 55.71 475.95 55.71H516.38C516.987 55.71 517.29 56.2733 517.29 57.4C517.29 58.5267 516.987 59.09 516.38 59.09H514.69C511.137 59.09 508.407 59.7833 506.5 61.17C504.593 62.5567 503.64 65.07 503.64 68.71V139.17C503.64 147.577 502.037 154.293 498.83 159.32C495.623 164.347 491.81 167.857 487.39 169.85C483.057 171.843 478.853 172.84 474.78 172.84ZM573.541 152.82C566.435 152.82 559.458 150.913 552.611 147.1C545.765 143.287 540.088 137.653 535.581 130.2C531.161 122.747 528.951 113.863 528.951 103.55C528.951 93.2367 531.161 84.3967 535.581 77.03C540.088 69.5767 545.765 63.9433 552.611 60.13C559.458 56.3167 566.435 54.41 573.541 54.41C580.561 54.41 587.495 56.3167 594.341 60.13C601.275 63.9433 606.951 69.5767 611.371 77.03C615.791 84.3967 618.001 93.2367 618.001 103.55C618.001 113.863 615.791 122.747 611.371 130.2C606.951 137.653 601.275 143.287 594.341 147.1C587.495 150.913 580.561 152.82 573.541 152.82ZM573.541 148.66C578.655 148.66 583.335 146.97 587.581 143.59C591.915 140.21 595.338 135.14 597.851 128.38C600.451 121.62 601.751 113.343 601.751 103.55C601.751 93.8433 600.451 85.61 597.851 78.85C595.338 72.09 591.915 67.0633 587.581 63.77C583.335 60.39 578.655 58.7 573.541 58.7C568.428 58.7 563.705 60.39 559.371 63.77C555.125 67.0633 551.701 72.09 549.101 78.85C546.588 85.61 545.331 93.8433 545.331 103.55C545.331 113.343 546.588 121.62 549.101 128.38C551.701 135.14 555.125 140.21 559.371 143.59C563.705 146.97 568.428 148.66 573.541 148.66ZM732.666 147.75C733.36 147.75 733.706 148.27 733.706 149.31C733.706 150.437 733.36 151 732.666 151H692.236C691.63 151 691.326 150.437 691.326 149.31C691.326 148.27 691.63 147.75 692.236 147.75H694.056C697.523 147.75 700.21 147.057 702.116 145.67C704.023 144.283 704.976 141.727 704.976 138V103.42H659.866V138C659.866 141.727 660.82 144.283 662.726 145.67C664.633 146.97 667.363 147.62 670.916 147.62H672.606C673.04 147.62 673.3 147.75 673.386 148.01C673.56 148.27 673.646 148.703 673.646 149.31C673.646 150.35 673.3 150.87 672.606 150.87H632.176C631.57 150.87 631.266 150.35 631.266 149.31C631.266 148.183 631.57 147.62 632.176 147.62H633.996C637.463 147.62 640.15 146.927 642.056 145.54C644.05 144.153 645.046 141.64 645.046 138V68.58C645.046 64.8533 644.05 62.34 642.056 61.04C640.15 59.6533 637.463 58.96 633.996 58.96H632.176C631.57 58.96 631.266 58.3967 631.266 57.27C631.266 56.1433 631.57 55.58 632.176 55.58H672.606C673.3 55.58 673.646 56.1433 673.646 57.27C673.646 58.3967 673.3 58.96 672.606 58.96H670.916C667.276 58.96 664.546 59.6533 662.726 61.04C660.906 62.34 659.996 64.8533 659.996 68.58V98.61H705.106V68.71C705.106 64.9833 704.11 62.4267 702.116 61.04C700.21 59.6533 697.523 58.96 694.056 58.96H692.236C691.63 58.96 691.326 58.44 691.326 57.4C691.326 56.2733 691.63 55.71 692.236 55.71H732.666C733.1 55.71 733.36 55.84 733.446 56.1C733.62 56.36 733.706 56.7933 733.706 57.4C733.706 58.44 733.36 58.96 732.666 58.96H730.976C727.423 58.96 724.693 59.6533 722.786 61.04C720.966 62.4267 720.056 64.9833 720.056 68.71L719.926 138C719.926 141.727 720.88 144.283 722.786 145.67C724.693 147.057 727.423 147.75 730.976 147.75H732.666ZM745.896 151C745.376 151 745.116 150.437 745.116 149.31C745.116 148.27 745.376 147.75 745.896 147.75H747.586C750.359 147.75 752.873 146.71 755.126 144.63C757.466 142.55 758.636 139.82 758.636 136.44V67.8C757.856 64.94 756.599 62.86 754.866 61.56C753.219 60.1733 750.836 59.35 747.716 59.09L745.896 58.96C745.289 58.8733 744.986 58.3533 744.986 57.4C744.986 56.2733 745.289 55.71 745.896 55.71H771.506L821.296 126.95V70.27C821.296 66.89 820.083 64.16 817.656 62.08C815.316 60 812.803 58.96 810.116 58.96H808.426C807.819 58.96 807.516 58.44 807.516 57.4C807.516 56.2733 807.819 55.71 808.426 55.71H839.106C839.539 55.71 839.799 55.84 839.886 56.1C840.059 56.36 840.146 56.7933 840.146 57.4C840.146 58.44 839.799 58.96 839.106 58.96H837.546C834.686 58.96 832.129 60 829.876 62.08C827.623 64.0733 826.496 66.8033 826.496 70.27V151H819.866L763.836 70.27V136.44C763.836 139.907 765.006 142.68 767.346 144.76C769.773 146.753 772.373 147.75 775.146 147.75H776.706C777.313 147.75 777.616 148.27 777.616 149.31C777.616 150.437 777.313 151 776.706 151H745.896ZM862.707 152.95C860.367 152.95 858.374 152.127 856.727 150.48C855.167 148.833 854.387 146.883 854.387 144.63C854.387 142.377 855.167 140.47 856.727 138.91C858.374 137.263 860.367 136.44 862.707 136.44C864.96 136.44 866.91 137.263 868.557 138.91C870.204 140.47 871.027 142.377 871.027 144.63C871.027 146.883 870.204 148.833 868.557 150.48C866.91 152.127 864.96 152.95 862.707 152.95Z" fill="#3A4257"/>
<path d="M932.78 172.84C929.4 172.84 926.453 172.233 923.94 171.02C921.513 169.893 919.65 168.463 918.35 166.73C917.05 165.083 916.4 163.437 916.4 161.79C916.4 159.883 917.007 158.367 918.22 157.24C919.433 156.113 920.777 155.55 922.25 155.55C924.417 155.55 926.67 156.503 929.01 158.41C929.877 159.19 931.48 160.88 933.82 163.48C935.813 165.733 937.547 166.86 939.02 166.86C940.233 166.86 941.317 166.297 942.27 165.17C943.83 163.61 944.957 160.707 945.65 156.46C946.43 152.3 946.82 146.58 946.82 139.3V68.71C946.82 64.9833 945.823 62.47 943.83 61.17C941.837 59.7833 939.107 59.09 935.64 59.09H933.95C933.343 59.09 933.04 58.5267 933.04 57.4C933.04 56.2733 933.343 55.71 933.95 55.71H974.38C974.987 55.71 975.29 56.2733 975.29 57.4C975.29 58.5267 974.987 59.09 974.38 59.09H972.69C969.137 59.09 966.407 59.7833 964.5 61.17C962.593 62.5567 961.64 65.07 961.64 68.71V139.17C961.64 147.577 960.037 154.293 956.83 159.32C953.623 164.347 949.81 167.857 945.39 169.85C941.057 171.843 936.853 172.84 932.78 172.84ZM1031.54 152.82C1024.43 152.82 1017.46 150.913 1010.61 147.1C1003.76 143.287 998.088 137.653 993.581 130.2C989.161 122.747 986.951 113.863 986.951 103.55C986.951 93.2367 989.161 84.3967 993.581 77.03C998.088 69.5767 1003.76 63.9433 1010.61 60.13C1017.46 56.3167 1024.43 54.41 1031.54 54.41C1038.56 54.41 1045.49 56.3167 1052.34 60.13C1059.27 63.9433 1064.95 69.5767 1069.37 77.03C1073.79 84.3967 1076 93.2367 1076 103.55C1076 113.863 1073.79 122.747 1069.37 130.2C1064.95 137.653 1059.27 143.287 1052.34 147.1C1045.49 150.913 1038.56 152.82 1031.54 152.82ZM1031.54 148.66C1036.65 148.66 1041.33 146.97 1045.58 143.59C1049.91 140.21 1053.34 135.14 1055.85 128.38C1058.45 121.62 1059.75 113.343 1059.75 103.55C1059.75 93.8433 1058.45 85.61 1055.85 78.85C1053.34 72.09 1049.91 67.0633 1045.58 63.77C1041.33 60.39 1036.65 58.7 1031.54 58.7C1026.43 58.7 1021.7 60.39 1017.37 63.77C1013.12 67.0633 1009.7 72.09 1007.1 78.85C1004.59 85.61 1003.33 93.8433 1003.33 103.55C1003.33 113.343 1004.59 121.62 1007.1 128.38C1009.7 135.14 1013.12 140.21 1017.37 143.59C1021.7 146.97 1026.43 148.66 1031.54 148.66ZM1190.67 147.75C1191.36 147.75 1191.71 148.27 1191.71 149.31C1191.71 150.437 1191.36 151 1190.67 151H1150.24C1149.63 151 1149.33 150.437 1149.33 149.31C1149.33 148.27 1149.63 147.75 1150.24 147.75H1152.06C1155.52 147.75 1158.21 147.057 1160.12 145.67C1162.02 144.283 1162.98 141.727 1162.98 138V103.42H1117.87V138C1117.87 141.727 1118.82 144.283 1120.73 145.67C1122.63 146.97 1125.36 147.62 1128.92 147.62H1130.61C1131.04 147.62 1131.3 147.75 1131.39 148.01C1131.56 148.27 1131.65 148.703 1131.65 149.31C1131.65 150.35 1131.3 150.87 1130.61 150.87H1090.18C1089.57 150.87 1089.27 150.35 1089.27 149.31C1089.27 148.183 1089.57 147.62 1090.18 147.62H1092C1095.46 147.62 1098.15 146.927 1100.06 145.54C1102.05 144.153 1103.05 141.64 1103.05 138V68.58C1103.05 64.8533 1102.05 62.34 1100.06 61.04C1098.15 59.6533 1095.46 58.96 1092 58.96H1090.18C1089.57 58.96 1089.27 58.3967 1089.27 57.27C1089.27 56.1433 1089.57 55.58 1090.18 55.58H1130.61C1131.3 55.58 1131.65 56.1433 1131.65 57.27C1131.65 58.3967 1131.3 58.96 1130.61 58.96H1128.92C1125.28 58.96 1122.55 59.6533 1120.73 61.04C1118.91 62.34 1118 64.8533 1118 68.58V98.61H1163.11V68.71C1163.11 64.9833 1162.11 62.4267 1160.12 61.04C1158.21 59.6533 1155.52 58.96 1152.06 58.96H1150.24C1149.63 58.96 1149.33 58.44 1149.33 57.4C1149.33 56.2733 1149.63 55.71 1150.24 55.71H1190.67C1191.1 55.71 1191.36 55.84 1191.45 56.1C1191.62 56.36 1191.71 56.7933 1191.71 57.4C1191.71 58.44 1191.36 58.96 1190.67 58.96H1188.98C1185.42 58.96 1182.69 59.6533 1180.79 61.04C1178.97 62.4267 1178.06 64.9833 1178.06 68.71L1177.93 138C1177.93 141.727 1178.88 144.283 1180.79 145.67C1182.69 147.057 1185.42 147.75 1188.98 147.75H1190.67ZM1203.9 151C1203.38 151 1203.12 150.437 1203.12 149.31C1203.12 148.27 1203.38 147.75 1203.9 147.75H1205.59C1208.36 147.75 1210.87 146.71 1213.13 144.63C1215.47 142.55 1216.64 139.82 1216.64 136.44V67.8C1215.86 64.94 1214.6 62.86 1212.87 61.56C1211.22 60.1733 1208.84 59.35 1205.72 59.09L1203.9 58.96C1203.29 58.8733 1202.99 58.3533 1202.99 57.4C1202.99 56.2733 1203.29 55.71 1203.9 55.71H1229.51L1279.3 126.95V70.27C1279.3 66.89 1278.08 64.16 1275.66 62.08C1273.32 60 1270.8 58.96 1268.12 58.96H1266.43C1265.82 58.96 1265.52 58.44 1265.52 57.4C1265.52 56.2733 1265.82 55.71 1266.43 55.71H1297.11C1297.54 55.71 1297.8 55.84 1297.89 56.1C1298.06 56.36 1298.15 56.7933 1298.15 57.4C1298.15 58.44 1297.8 58.96 1297.11 58.96H1295.55C1292.69 58.96 1290.13 60 1287.88 62.08C1285.62 64.0733 1284.5 66.8033 1284.5 70.27V151H1277.87L1221.84 70.27V136.44C1221.84 139.907 1223.01 142.68 1225.35 144.76C1227.77 146.753 1230.37 147.75 1233.15 147.75H1234.71C1235.31 147.75 1235.62 148.27 1235.62 149.31C1235.62 150.437 1235.31 151 1234.71 151H1203.9ZM1320.71 152.95C1318.37 152.95 1316.37 152.127 1314.73 150.48C1313.17 148.833 1312.39 146.883 1312.39 144.63C1312.39 142.377 1313.17 140.47 1314.73 138.91C1316.37 137.263 1318.37 136.44 1320.71 136.44C1322.96 136.44 1324.91 137.263 1326.56 138.91C1328.2 140.47 1329.03 142.377 1329.03 144.63C1329.03 146.883 1328.2 148.833 1326.56 150.48C1324.91 152.127 1322.96 152.95 1320.71 152.95Z" fill="#E0C28F"/>
<path d="M1390.78 172.84C1387.4 172.84 1384.45 172.233 1381.94 171.02C1379.51 169.893 1377.65 168.463 1376.35 166.73C1375.05 165.083 1374.4 163.437 1374.4 161.79C1374.4 159.883 1375.01 158.367 1376.22 157.24C1377.43 156.113 1378.78 155.55 1380.25 155.55C1382.42 155.55 1384.67 156.503 1387.01 158.41C1387.88 159.19 1389.48 160.88 1391.82 163.48C1393.81 165.733 1395.55 166.86 1397.02 166.86C1398.23 166.86 1399.32 166.297 1400.27 165.17C1401.83 163.61 1402.96 160.707 1403.65 156.46C1404.43 152.3 1404.82 146.58 1404.82 139.3V68.71C1404.82 64.9833 1403.82 62.47 1401.83 61.17C1399.84 59.7833 1397.11 59.09 1393.64 59.09H1391.95C1391.34 59.09 1391.04 58.5267 1391.04 57.4C1391.04 56.2733 1391.34 55.71 1391.95 55.71H1432.38C1432.99 55.71 1433.29 56.2733 1433.29 57.4C1433.29 58.5267 1432.99 59.09 1432.38 59.09H1430.69C1427.14 59.09 1424.41 59.7833 1422.5 61.17C1420.59 62.5567 1419.64 65.07 1419.64 68.71V139.17C1419.64 147.577 1418.04 154.293 1414.83 159.32C1411.62 164.347 1407.81 167.857 1403.39 169.85C1399.06 171.843 1394.85 172.84 1390.78 172.84ZM1489.54 152.82C1482.43 152.82 1475.46 150.913 1468.61 147.1C1461.76 143.287 1456.09 137.653 1451.58 130.2C1447.16 122.747 1444.95 113.863 1444.95 103.55C1444.95 93.2367 1447.16 84.3967 1451.58 77.03C1456.09 69.5767 1461.76 63.9433 1468.61 60.13C1475.46 56.3167 1482.43 54.41 1489.54 54.41C1496.56 54.41 1503.49 56.3167 1510.34 60.13C1517.27 63.9433 1522.95 69.5767 1527.37 77.03C1531.79 84.3967 1534 93.2367 1534 103.55C1534 113.863 1531.79 122.747 1527.37 130.2C1522.95 137.653 1517.27 143.287 1510.34 147.1C1503.49 150.913 1496.56 152.82 1489.54 152.82ZM1489.54 148.66C1494.65 148.66 1499.33 146.97 1503.58 143.59C1507.91 140.21 1511.34 135.14 1513.85 128.38C1516.45 121.62 1517.75 113.343 1517.75 103.55C1517.75 93.8433 1516.45 85.61 1513.85 78.85C1511.34 72.09 1507.91 67.0633 1503.58 63.77C1499.33 60.39 1494.65 58.7 1489.54 58.7C1484.43 58.7 1479.7 60.39 1475.37 63.77C1471.12 67.0633 1467.7 72.09 1465.1 78.85C1462.59 85.61 1461.33 93.8433 1461.33 103.55C1461.33 113.343 1462.59 121.62 1465.1 128.38C1467.7 135.14 1471.12 140.21 1475.37 143.59C1479.7 146.97 1484.43 148.66 1489.54 148.66ZM1648.67 147.75C1649.36 147.75 1649.71 148.27 1649.71 149.31C1649.71 150.437 1649.36 151 1648.67 151H1608.24C1607.63 151 1607.33 150.437 1607.33 149.31C1607.33 148.27 1607.63 147.75 1608.24 147.75H1610.06C1613.52 147.75 1616.21 147.057 1618.12 145.67C1620.02 144.283 1620.98 141.727 1620.98 138V103.42H1575.87V138C1575.87 141.727 1576.82 144.283 1578.73 145.67C1580.63 146.97 1583.36 147.62 1586.92 147.62H1588.61C1589.04 147.62 1589.3 147.75 1589.39 148.01C1589.56 148.27 1589.65 148.703 1589.65 149.31C1589.65 150.35 1589.3 150.87 1588.61 150.87H1548.18C1547.57 150.87 1547.27 150.35 1547.27 149.31C1547.27 148.183 1547.57 147.62 1548.18 147.62H1550C1553.46 147.62 1556.15 146.927 1558.06 145.54C1560.05 144.153 1561.05 141.64 1561.05 138V68.58C1561.05 64.8533 1560.05 62.34 1558.06 61.04C1556.15 59.6533 1553.46 58.96 1550 58.96H1548.18C1547.57 58.96 1547.27 58.3967 1547.27 57.27C1547.27 56.1433 1547.57 55.58 1548.18 55.58H1588.61C1589.3 55.58 1589.65 56.1433 1589.65 57.27C1589.65 58.3967 1589.3 58.96 1588.61 58.96H1586.92C1583.28 58.96 1580.55 59.6533 1578.73 61.04C1576.91 62.34 1576 64.8533 1576 68.58V98.61H1621.11V68.71C1621.11 64.9833 1620.11 62.4267 1618.12 61.04C1616.21 59.6533 1613.52 58.96 1610.06 58.96H1608.24C1607.63 58.96 1607.33 58.44 1607.33 57.4C1607.33 56.2733 1607.63 55.71 1608.24 55.71H1648.67C1649.1 55.71 1649.36 55.84 1649.45 56.1C1649.62 56.36 1649.71 56.7933 1649.71 57.4C1649.71 58.44 1649.36 58.96 1648.67 58.96H1646.98C1643.42 58.96 1640.69 59.6533 1638.79 61.04C1636.97 62.4267 1636.06 64.9833 1636.06 68.71L1635.93 138C1635.93 141.727 1636.88 144.283 1638.79 145.67C1640.69 147.057 1643.42 147.75 1646.98 147.75H1648.67ZM1661.9 151C1661.38 151 1661.12 150.437 1661.12 149.31C1661.12 148.27 1661.38 147.75 1661.9 147.75H1663.59C1666.36 147.75 1668.87 146.71 1671.13 144.63C1673.47 142.55 1674.64 139.82 1674.64 136.44V67.8C1673.86 64.94 1672.6 62.86 1670.87 61.56C1669.22 60.1733 1666.84 59.35 1663.72 59.09L1661.9 58.96C1661.29 58.8733 1660.99 58.3533 1660.99 57.4C1660.99 56.2733 1661.29 55.71 1661.9 55.71H1687.51L1737.3 126.95V70.27C1737.3 66.89 1736.08 64.16 1733.66 62.08C1731.32 60 1728.8 58.96 1726.12 58.96H1724.43C1723.82 58.96 1723.52 58.44 1723.52 57.4C1723.52 56.2733 1723.82 55.71 1724.43 55.71H1755.11C1755.54 55.71 1755.8 55.84 1755.89 56.1C1756.06 56.36 1756.15 56.7933 1756.15 57.4C1756.15 58.44 1755.8 58.96 1755.11 58.96H1753.55C1750.69 58.96 1748.13 60 1745.88 62.08C1743.62 64.0733 1742.5 66.8033 1742.5 70.27V151H1735.87L1679.84 70.27V136.44C1679.84 139.907 1681.01 142.68 1683.35 144.76C1685.77 146.753 1688.37 147.75 1691.15 147.75H1692.71C1693.31 147.75 1693.62 148.27 1693.62 149.31C1693.62 150.437 1693.31 151 1692.71 151H1661.9ZM1778.71 152.95C1776.37 152.95 1774.37 152.127 1772.73 150.48C1771.17 148.833 1770.39 146.883 1770.39 144.63C1770.39 142.377 1771.17 140.47 1772.73 138.91C1774.37 137.263 1776.37 136.44 1778.71 136.44C1780.96 136.44 1782.91 137.263 1784.56 138.91C1786.2 140.47 1787.03 142.377 1787.03 144.63C1787.03 146.883 1786.2 148.833 1784.56 150.48C1782.91 152.127 1780.96 152.95 1778.71 152.95Z" fill="#E0C28F"/>
<path d="M16.78 172.84C13.4 172.84 10.4533 172.233 7.94 171.02C5.51333 169.893 3.65 168.463 2.35 166.73C1.05 165.083 0.4 163.437 0.4 161.79C0.4 159.883 1.00667 158.367 2.22 157.24C3.43333 156.113 4.77667 155.55 6.25 155.55C8.41667 155.55 10.67 156.503 13.01 158.41C13.8767 159.19 15.48 160.88 17.82 163.48C19.8133 165.733 21.5467 166.86 23.02 166.86C24.2333 166.86 25.3167 166.297 26.27 165.17C27.83 163.61 28.9567 160.707 29.65 156.46C30.43 152.3 30.82 146.58 30.82 139.3V68.71C30.82 64.9833 29.8233 62.47 27.83 61.17C25.8367 59.7833 23.1067 59.09 19.64 59.09H17.95C17.3433 59.09 17.04 58.5267 17.04 57.4C17.04 56.2733 17.3433 55.71 17.95 55.71H58.38C58.9867 55.71 59.29 56.2733 59.29 57.4C59.29 58.5267 58.9867 59.09 58.38 59.09H56.69C53.1367 59.09 50.4067 59.7833 48.5 61.17C46.5933 62.5567 45.64 65.07 45.64 68.71V139.17C45.64 147.577 44.0367 154.293 40.83 159.32C37.6233 164.347 33.81 167.857 29.39 169.85C25.0567 171.843 20.8533 172.84 16.78 172.84ZM115.541 152.82C108.435 152.82 101.458 150.913 94.6114 147.1C87.7647 143.287 82.0881 137.653 77.5814 130.2C73.1614 122.747 70.9514 113.863 70.9514 103.55C70.9514 93.2367 73.1614 84.3967 77.5814 77.03C82.0881 69.5767 87.7647 63.9433 94.6114 60.13C101.458 56.3167 108.435 54.41 115.541 54.41C122.561 54.41 129.495 56.3167 136.341 60.13C143.275 63.9433 148.951 69.5767 153.371 77.03C157.791 84.3967 160.001 93.2367 160.001 103.55C160.001 113.863 157.791 122.747 153.371 130.2C148.951 137.653 143.275 143.287 136.341 147.1C129.495 150.913 122.561 152.82 115.541 152.82ZM115.541 148.66C120.655 148.66 125.335 146.97 129.581 143.59C133.915 140.21 137.338 135.14 139.851 128.38C142.451 121.62 143.751 113.343 143.751 103.55C143.751 93.8433 142.451 85.61 139.851 78.85C137.338 72.09 133.915 67.0633 129.581 63.77C125.335 60.39 120.655 58.7 115.541 58.7C110.428 58.7 105.705 60.39 101.371 63.77C97.1247 67.0633 93.7014 72.09 91.1014 78.85C88.5881 85.61 87.3314 93.8433 87.3314 103.55C87.3314 113.343 88.5881 121.62 91.1014 128.38C93.7014 135.14 97.1247 140.21 101.371 143.59C105.705 146.97 110.428 148.66 115.541 148.66ZM274.666 147.75C275.36 147.75 275.706 148.27 275.706 149.31C275.706 150.437 275.36 151 274.666 151H234.236C233.63 151 233.326 150.437 233.326 149.31C233.326 148.27 233.63 147.75 234.236 147.75H236.056C239.523 147.75 242.21 147.057 244.116 145.67C246.023 144.283 246.976 141.727 246.976 138V103.42H201.866V138C201.866 141.727 202.82 144.283 204.726 145.67C206.633 146.97 209.363 147.62 212.916 147.62H214.606C215.04 147.62 215.3 147.75 215.386 148.01C215.56 148.27 215.646 148.703 215.646 149.31C215.646 150.35 215.3 150.87 214.606 150.87H174.176C173.57 150.87 173.266 150.35 173.266 149.31C173.266 148.183 173.57 147.62 174.176 147.62H175.996C179.463 147.62 182.15 146.927 184.056 145.54C186.05 144.153 187.046 141.64 187.046 138V68.58C187.046 64.8533 186.05 62.34 184.056 61.04C182.15 59.6533 179.463 58.96 175.996 58.96H174.176C173.57 58.96 173.266 58.3967 173.266 57.27C173.266 56.1433 173.57 55.58 174.176 55.58H214.606C215.3 55.58 215.646 56.1433 215.646 57.27C215.646 58.3967 215.3 58.96 214.606 58.96H212.916C209.276 58.96 206.546 59.6533 204.726 61.04C202.906 62.34 201.996 64.8533 201.996 68.58V98.61H247.106V68.71C247.106 64.9833 246.11 62.4267 244.116 61.04C242.21 59.6533 239.523 58.96 236.056 58.96H234.236C233.63 58.96 233.326 58.44 233.326 57.4C233.326 56.2733 233.63 55.71 234.236 55.71H274.666C275.1 55.71 275.36 55.84 275.446 56.1C275.62 56.36 275.706 56.7933 275.706 57.4C275.706 58.44 275.36 58.96 274.666 58.96H272.976C269.423 58.96 266.693 59.6533 264.786 61.04C262.966 62.4267 262.056 64.9833 262.056 68.71L261.926 138C261.926 141.727 262.88 144.283 264.786 145.67C266.693 147.057 269.423 147.75 272.976 147.75H274.666ZM287.896 151C287.376 151 287.116 150.437 287.116 149.31C287.116 148.27 287.376 147.75 287.896 147.75H289.586C292.359 147.75 294.873 146.71 297.126 144.63C299.466 142.55 300.636 139.82 300.636 136.44V67.8C299.856 64.94 298.599 62.86 296.866 61.56C295.219 60.1733 292.836 59.35 289.716 59.09L287.896 58.96C287.289 58.8733 286.986 58.3533 286.986 57.4C286.986 56.2733 287.289 55.71 287.896 55.71H313.506L363.296 126.95V70.27C363.296 66.89 362.083 64.16 359.656 62.08C357.316 60 354.803 58.96 352.116 58.96H350.426C349.819 58.96 349.516 58.44 349.516 57.4C349.516 56.2733 349.819 55.71 350.426 55.71H381.106C381.539 55.71 381.799 55.84 381.886 56.1C382.059 56.36 382.146 56.7933 382.146 57.4C382.146 58.44 381.799 58.96 381.106 58.96H379.546C376.686 58.96 374.129 60 371.876 62.08C369.623 64.0733 368.496 66.8033 368.496 70.27V151H361.866L305.836 70.27V136.44C305.836 139.907 307.006 142.68 309.346 144.76C311.773 146.753 314.373 147.75 317.146 147.75H318.706C319.313 147.75 319.616 148.27 319.616 149.31C319.616 150.437 319.313 151 318.706 151H287.896ZM404.707 152.95C402.367 152.95 400.374 152.127 398.727 150.48C397.167 148.833 396.387 146.883 396.387 144.63C396.387 142.377 397.167 140.47 398.727 138.91C400.374 137.263 402.367 136.44 404.707 136.44C406.96 136.44 408.91 137.263 410.557 138.91C412.204 140.47 413.027 142.377 413.027 144.63C413.027 146.883 412.204 148.833 410.557 150.48C408.91 152.127 406.96 152.95 404.707 152.95Z" fill="#E0C28F"/>
</svg>
