<svg width="2243" height="188" viewBox="0 0 2243 188" fill="none" xmlns="http://www.w3.org/2000/svg">
<path d="M829.78 55.71C835.587 55.97 841.003 57.0967 846.03 59.09C851.057 61.0833 855.087 63.9433 858.12 67.67C861.153 71.3967 862.67 75.7733 862.67 80.8C862.67 89.9867 859.073 96.53 851.88 100.43C844.773 104.33 836.453 106.497 826.92 106.93C825.013 107.017 822.023 107.06 817.95 107.06H811.97V138C811.97 141.727 812.923 144.283 814.83 145.67C816.737 147.057 819.467 147.75 823.02 147.75H824.84C825.447 147.75 825.75 148.27 825.75 149.31C825.75 150.437 825.447 151 824.84 151H784.28C783.673 151 783.37 150.437 783.37 149.31C783.37 148.27 783.673 147.75 784.28 147.75H786.1C789.48 147.75 792.167 147.057 794.16 145.67C796.153 144.283 797.15 141.727 797.15 138V68.71C797.15 65.07 796.153 62.5567 794.16 61.17C792.253 59.6967 789.567 58.96 786.1 58.96H784.28C783.673 58.96 783.37 58.44 783.37 57.4C783.37 56.2733 783.673 55.71 784.28 55.71L815.48 55.58C823.8 55.58 828.567 55.6233 829.78 55.71ZM821.85 103.29C830.863 103.117 837.19 100.993 840.83 96.92C844.47 92.8467 846.29 87.3 846.29 80.28C846.29 74.9067 844.903 70.66 842.13 67.54C839.357 64.42 836.15 62.2967 832.51 61.17C828.957 59.9567 825.707 59.35 822.76 59.35C819.64 59.35 817.04 59.9133 814.96 61.04C812.967 62.1667 811.97 64.3767 811.97 67.67V103.42H815.61C818.73 103.42 820.81 103.377 821.85 103.29ZM957.233 126.04C957.926 126.3 958.273 126.777 958.273 127.47C958.273 127.817 958.056 128.51 957.623 129.55C955.023 136.137 952.379 143.287 949.693 151H874.293C873.599 151 873.253 150.437 873.253 149.31C873.253 148.27 873.599 147.75 874.293 147.75H875.983C879.449 147.75 882.136 147.057 884.043 145.67C886.036 144.283 887.033 141.727 887.033 138V68.71C887.033 64.9833 886.036 62.4267 884.043 61.04C882.049 59.6533 879.363 58.96 875.983 58.96H874.293C873.599 58.96 873.253 58.3967 873.253 57.27C873.253 56.23 873.599 55.71 874.293 55.71H946.183C947.829 58.57 949.649 61.8633 951.643 65.59C953.723 69.3167 954.806 71.3967 954.893 71.83C954.979 72.0033 955.023 72.22 955.023 72.48C955.023 72.9133 954.719 73.26 954.113 73.52C953.853 73.6933 953.506 73.78 953.073 73.78C952.553 73.78 952.163 73.65 951.903 73.39C948.176 69.5767 943.366 66.3267 937.473 63.64C931.579 60.8667 925.469 59.48 919.143 59.48H916.413C912.859 59.48 910.129 59.6533 908.223 60C906.316 60.26 904.799 60.9533 903.673 62.08C902.546 63.2067 901.983 65.0267 901.983 67.54V99.39H912.773C917.799 99.39 921.136 99.3467 922.783 99.26C926.423 99.1733 929.283 97.9167 931.363 95.49C933.529 92.9767 934.613 90.03 934.613 86.65C934.613 86.3033 934.743 86.0867 935.003 86C935.263 85.8267 935.653 85.74 936.173 85.74C937.299 85.74 937.863 86.0433 937.863 86.65V116.81C937.863 117.417 937.299 117.72 936.173 117.72C935.653 117.72 935.263 117.677 935.003 117.59C934.743 117.417 934.613 117.157 934.613 116.81C934.613 113.43 933.529 110.483 931.363 107.97C929.283 105.457 926.423 104.157 922.783 104.07C921.136 103.983 917.799 103.94 912.773 103.94H901.983V139.04C901.983 142.073 902.849 144.153 904.583 145.28C906.403 146.32 909.306 146.97 913.293 147.23C914.333 147.317 915.893 147.36 917.973 147.36C919.879 147.36 921.396 147.317 922.523 147.23C927.896 146.883 932.619 145.627 936.693 143.46C940.766 141.293 944.146 138.867 946.833 136.18C949.519 133.407 952.293 130.113 955.153 126.3C955.413 125.953 955.803 125.78 956.323 125.78C956.583 125.78 956.886 125.867 957.233 126.04ZM994.038 151C993.518 151 993.258 150.437 993.258 149.31C993.258 148.27 993.518 147.75 994.038 147.75H995.858C999.325 147.75 1002.01 147.057 1003.92 145.67C1005.91 144.197 1006.91 141.64 1006.91 138V67.67C1006.91 64.55 1006.04 62.3833 1004.31 61.17C1002.57 59.9567 1000.19 59.35 997.158 59.35C996.638 59.35 995.685 59.4367 994.298 59.61C990.398 60.0433 986.108 61.82 981.428 64.94C976.748 67.9733 973.151 71.2667 970.638 74.82C970.205 75.34 969.771 75.6 969.338 75.6C969.165 75.6 968.905 75.5133 968.558 75.34C967.778 74.9933 967.388 74.6467 967.388 74.3C967.388 74.04 967.475 73.6933 967.648 73.26C968.255 71.5267 969.208 68.8833 970.508 65.33C971.895 61.7767 973.151 58.57 974.278 55.71H1054.36L1058.52 66.63L1061.12 73.26L1061.25 74.3C1061.25 74.6467 1060.9 74.9933 1060.21 75.34C1059.86 75.5133 1059.56 75.6 1059.3 75.6C1058.78 75.6 1058.34 75.34 1058 74.82C1055.48 71.2667 1051.89 67.9733 1047.21 64.94C1042.53 61.82 1038.24 60.0433 1034.34 59.61C1032.95 59.4367 1032 59.35 1031.48 59.35C1028.36 59.35 1025.93 60 1024.2 61.3C1022.55 62.5133 1021.73 64.6367 1021.73 67.67V138C1021.73 141.727 1022.72 144.283 1024.72 145.67C1026.71 147.057 1029.4 147.75 1032.78 147.75H1034.47C1035.07 147.75 1035.38 148.27 1035.38 149.31C1035.38 150.437 1035.07 151 1034.47 151H994.038ZM1162.72 147.75C1163.32 147.75 1163.63 148.27 1163.63 149.31C1163.63 150.437 1163.32 151 1162.72 151H1135.81C1132.34 144.413 1127.96 136.44 1122.68 127.08C1117.39 117.72 1112.93 110.44 1109.29 105.24H1107.08H1098.5V138C1098.5 141.727 1099.49 144.283 1101.49 145.67C1103.48 147.057 1106.17 147.75 1109.55 147.75H1111.37C1111.97 147.75 1112.28 148.27 1112.28 149.31C1112.28 150.437 1111.97 151 1111.37 151H1071.07C1070.46 151 1070.16 150.437 1070.16 149.31C1070.16 148.27 1070.46 147.75 1071.07 147.75H1072.89C1076.35 147.75 1079.04 147.057 1080.95 145.67C1082.94 144.283 1083.94 141.727 1083.94 138V68.71C1083.94 64.9833 1082.94 62.4267 1080.95 61.04C1078.95 59.6533 1076.27 58.96 1072.89 58.96H1071.07C1070.46 58.96 1070.16 58.44 1070.16 57.4C1070.16 56.2733 1070.46 55.71 1071.07 55.71C1081.9 55.5367 1092.34 55.45 1102.4 55.45C1108.98 55.45 1113.71 55.4933 1116.57 55.58C1122.29 55.6667 1127.62 56.7067 1132.56 58.7C1137.58 60.6933 1141.61 63.5533 1144.65 67.28C1147.68 70.92 1149.2 75.1667 1149.2 80.02C1149.2 86 1146.86 90.8967 1142.18 94.71C1137.5 98.5233 1131.56 101.297 1124.37 103.03C1126.79 106.15 1130.87 112.52 1136.59 122.14C1137.89 124.133 1139.71 127.08 1142.05 130.98C1144.47 134.88 1146.51 138 1148.16 140.34C1149.46 142.16 1150.58 143.547 1151.54 144.5C1152.58 145.453 1153.96 146.233 1155.7 146.84C1157.52 147.447 1159.86 147.75 1162.72 147.75ZM1102.53 101.6C1122.72 101.6 1132.82 94.19 1132.82 79.37C1132.82 73.2167 1130.61 68.3633 1126.19 64.81C1121.77 61.2567 1116.18 59.48 1109.42 59.48C1105.95 59.48 1103.26 60.0433 1101.36 61.17C1099.45 62.2967 1098.5 64.4633 1098.5 67.67V101.6H1102.53ZM1216.83 152.82C1209.72 152.82 1202.74 150.913 1195.9 147.1C1189.05 143.287 1183.37 137.653 1178.87 130.2C1174.45 122.747 1172.24 113.863 1172.24 103.55C1172.24 93.2367 1174.45 84.3967 1178.87 77.03C1183.37 69.5767 1189.05 63.9433 1195.9 60.13C1202.74 56.3167 1209.72 54.41 1216.83 54.41C1223.85 54.41 1230.78 56.3167 1237.63 60.13C1244.56 63.9433 1250.24 69.5767 1254.66 77.03C1259.08 84.3967 1261.29 93.2367 1261.29 103.55C1261.29 113.863 1259.08 122.747 1254.66 130.2C1250.24 137.653 1244.56 143.287 1237.63 147.1C1230.78 150.913 1223.85 152.82 1216.83 152.82ZM1216.83 148.66C1221.94 148.66 1226.62 146.97 1230.87 143.59C1235.2 140.21 1238.62 135.14 1241.14 128.38C1243.74 121.62 1245.04 113.343 1245.04 103.55C1245.04 93.8433 1243.74 85.61 1241.14 78.85C1238.62 72.09 1235.2 67.0633 1230.87 63.77C1226.62 60.39 1221.94 58.7 1216.83 58.7C1211.71 58.7 1206.99 60.39 1202.66 63.77C1198.41 67.0633 1194.99 72.09 1192.39 78.85C1189.87 85.61 1188.62 93.8433 1188.62 103.55C1188.62 113.343 1189.87 121.62 1192.39 128.38C1194.99 135.14 1198.41 140.21 1202.66 143.59C1206.99 146.97 1211.71 148.66 1216.83 148.66ZM1275.46 151C1274.85 151 1274.55 150.437 1274.55 149.31C1274.55 148.183 1274.85 147.62 1275.46 147.62H1277.28C1280.83 147.62 1283.56 146.97 1285.47 145.67C1287.38 144.283 1288.33 141.727 1288.33 138V68.71C1288.33 64.9833 1287.33 62.4267 1285.34 61.04C1283.35 59.6533 1280.66 58.96 1277.28 58.96H1275.46C1274.85 58.96 1274.55 58.3967 1274.55 57.27C1274.55 56.23 1274.85 55.71 1275.46 55.71H1316.02C1316.45 55.71 1316.71 55.84 1316.8 56.1C1316.97 56.36 1317.06 56.7933 1317.06 57.4C1317.06 58.44 1316.71 58.96 1316.02 58.96H1314.33C1310.86 58.96 1308.13 59.6533 1306.14 61.04C1304.23 62.4267 1303.28 64.9833 1303.28 68.71V139.04C1303.28 142.073 1304.15 144.11 1305.88 145.15C1307.7 146.19 1310.6 146.84 1314.59 147.1L1317.58 147.23L1322 147.1C1329.63 146.84 1335.95 144.76 1340.98 140.86C1346.09 136.96 1350.69 132.107 1354.76 126.3C1355.11 125.953 1355.45 125.78 1355.8 125.78C1355.89 125.78 1356.28 125.867 1356.97 126.04C1357.58 126.3 1357.88 126.733 1357.88 127.34L1357.75 127.99L1355.67 133.45L1349.17 151H1275.46ZM1462.98 147.75C1463.32 147.75 1463.54 147.923 1463.63 148.27C1463.71 148.617 1463.76 149.007 1463.76 149.44C1463.76 150.48 1463.5 151 1462.98 151H1422.03C1421.42 151 1421.12 150.48 1421.12 149.44C1421.12 148.313 1421.42 147.75 1422.03 147.75C1429.91 147.577 1433.86 145.54 1433.86 141.64C1433.86 140.687 1433.47 139.127 1432.69 136.96L1426.06 117.72H1392.39L1386.28 135.14C1385.67 137.22 1385.37 138.78 1385.37 139.82C1385.37 145.107 1389.61 147.75 1398.11 147.75C1398.71 147.75 1399.02 148.313 1399.02 149.44C1399.02 150.48 1398.71 151 1398.11 151H1365.48C1364.87 151 1364.57 150.48 1364.57 149.44C1364.57 148.313 1364.87 147.75 1365.48 147.75C1368.25 147.75 1370.94 146.883 1373.54 145.15C1376.14 143.33 1378.22 140.383 1379.78 136.31C1381.6 131.89 1390.96 107.19 1407.86 62.21L1410.2 55.97L1417.87 53.76C1418.82 53.76 1419.43 54.1933 1419.69 55.06L1424.89 70.14C1428.09 79.24 1432.47 91.85 1438.02 107.97C1443.56 124.003 1446.86 133.407 1447.9 136.18C1449.2 139.473 1450.54 141.943 1451.93 143.59C1453.31 145.237 1454.83 146.363 1456.48 146.97C1458.21 147.49 1460.38 147.75 1462.98 147.75ZM1424.37 112.91L1409.81 70.53C1407.64 75.9033 1402.4 90.03 1394.08 112.91H1424.37ZM1482.89 152.95C1480.55 152.95 1478.55 152.127 1476.91 150.48C1475.35 148.833 1474.57 146.883 1474.57 144.63C1474.57 142.377 1475.35 140.47 1476.91 138.91C1478.55 137.263 1480.55 136.44 1482.89 136.44C1485.14 136.44 1487.09 137.263 1488.74 138.91C1490.38 140.47 1491.21 142.377 1491.21 144.63C1491.21 146.883 1490.38 148.833 1488.74 150.48C1487.09 152.127 1485.14 152.95 1482.89 152.95Z" fill="#3A4257"/>
<path d="M52.78 55.71C58.5867 55.97 64.0033 57.0967 69.03 59.09C74.0567 61.0833 78.0867 63.9433 81.12 67.67C84.1533 71.3967 85.67 75.7733 85.67 80.8C85.67 89.9867 82.0733 96.53 74.88 100.43C67.7733 104.33 59.4533 106.497 49.92 106.93C48.0133 107.017 45.0233 107.06 40.95 107.06H34.97V138C34.97 141.727 35.9233 144.283 37.83 145.67C39.7367 147.057 42.4667 147.75 46.02 147.75H47.84C48.4467 147.75 48.75 148.27 48.75 149.31C48.75 150.437 48.4467 151 47.84 151H7.28C6.67333 151 6.37 150.437 6.37 149.31C6.37 148.27 6.67333 147.75 7.28 147.75H9.1C12.48 147.75 15.1667 147.057 17.16 145.67C19.1533 144.283 20.15 141.727 20.15 138V68.71C20.15 65.07 19.1533 62.5567 17.16 61.17C15.2533 59.6967 12.5667 58.96 9.1 58.96H7.28C6.67333 58.96 6.37 58.44 6.37 57.4C6.37 56.2733 6.67333 55.71 7.28 55.71L38.48 55.58C46.8 55.58 51.5667 55.6233 52.78 55.71ZM44.85 103.29C53.8633 103.117 60.19 100.993 63.83 96.92C67.47 92.8467 69.29 87.3 69.29 80.28C69.29 74.9067 67.9033 70.66 65.13 67.54C62.3567 64.42 59.15 62.2967 55.51 61.17C51.9567 59.9567 48.7067 59.35 45.76 59.35C42.64 59.35 40.04 59.9133 37.96 61.04C35.9667 62.1667 34.97 64.3767 34.97 67.67V103.42H38.61C41.73 103.42 43.81 103.377 44.85 103.29ZM180.233 126.04C180.926 126.3 181.273 126.777 181.273 127.47C181.273 127.817 181.056 128.51 180.623 129.55C178.023 136.137 175.379 143.287 172.693 151H97.2928C96.5995 151 96.2528 150.437 96.2528 149.31C96.2528 148.27 96.5995 147.75 97.2928 147.75H98.9828C102.449 147.75 105.136 147.057 107.043 145.67C109.036 144.283 110.033 141.727 110.033 138V68.71C110.033 64.9833 109.036 62.4267 107.043 61.04C105.049 59.6533 102.363 58.96 98.9828 58.96H97.2928C96.5995 58.96 96.2528 58.3967 96.2528 57.27C96.2528 56.23 96.5995 55.71 97.2928 55.71H169.183C170.829 58.57 172.649 61.8633 174.643 65.59C176.723 69.3167 177.806 71.3967 177.893 71.83C177.979 72.0033 178.023 72.22 178.023 72.48C178.023 72.9133 177.719 73.26 177.113 73.52C176.853 73.6933 176.506 73.78 176.073 73.78C175.553 73.78 175.163 73.65 174.903 73.39C171.176 69.5767 166.366 66.3267 160.473 63.64C154.579 60.8667 148.469 59.48 142.143 59.48H139.413C135.859 59.48 133.129 59.6533 131.223 60C129.316 60.26 127.799 60.9533 126.673 62.08C125.546 63.2067 124.983 65.0267 124.983 67.54V99.39H135.773C140.799 99.39 144.136 99.3467 145.783 99.26C149.423 99.1733 152.283 97.9167 154.363 95.49C156.529 92.9767 157.613 90.03 157.613 86.65C157.613 86.3033 157.743 86.0867 158.003 86C158.263 85.8267 158.653 85.74 159.173 85.74C160.299 85.74 160.863 86.0433 160.863 86.65V116.81C160.863 117.417 160.299 117.72 159.173 117.72C158.653 117.72 158.263 117.677 158.003 117.59C157.743 117.417 157.613 117.157 157.613 116.81C157.613 113.43 156.529 110.483 154.363 107.97C152.283 105.457 149.423 104.157 145.783 104.07C144.136 103.983 140.799 103.94 135.773 103.94H124.983V139.04C124.983 142.073 125.849 144.153 127.583 145.28C129.403 146.32 132.306 146.97 136.293 147.23C137.333 147.317 138.893 147.36 140.973 147.36C142.879 147.36 144.396 147.317 145.523 147.23C150.896 146.883 155.619 145.627 159.693 143.46C163.766 141.293 167.146 138.867 169.833 136.18C172.519 133.407 175.293 130.113 178.153 126.3C178.413 125.953 178.803 125.78 179.323 125.78C179.583 125.78 179.886 125.867 180.233 126.04ZM217.038 151C216.518 151 216.258 150.437 216.258 149.31C216.258 148.27 216.518 147.75 217.038 147.75H218.858C222.325 147.75 225.011 147.057 226.918 145.67C228.911 144.197 229.908 141.64 229.908 138V67.67C229.908 64.55 229.041 62.3833 227.308 61.17C225.575 59.9567 223.191 59.35 220.158 59.35C219.638 59.35 218.685 59.4367 217.298 59.61C213.398 60.0433 209.108 61.82 204.428 64.94C199.748 67.9733 196.151 71.2667 193.638 74.82C193.205 75.34 192.771 75.6 192.338 75.6C192.165 75.6 191.905 75.5133 191.558 75.34C190.778 74.9933 190.388 74.6467 190.388 74.3C190.388 74.04 190.475 73.6933 190.648 73.26C191.255 71.5267 192.208 68.8833 193.508 65.33C194.895 61.7767 196.151 58.57 197.278 55.71H277.358L281.518 66.63L284.118 73.26L284.248 74.3C284.248 74.6467 283.901 74.9933 283.208 75.34C282.861 75.5133 282.558 75.6 282.298 75.6C281.778 75.6 281.345 75.34 280.998 74.82C278.485 71.2667 274.888 67.9733 270.208 64.94C265.528 61.82 261.238 60.0433 257.338 59.61C255.951 59.4367 254.998 59.35 254.478 59.35C251.358 59.35 248.931 60 247.198 61.3C245.551 62.5133 244.728 64.6367 244.728 67.67V138C244.728 141.727 245.725 144.283 247.718 145.67C249.711 147.057 252.398 147.75 255.778 147.75H257.468C258.075 147.75 258.378 148.27 258.378 149.31C258.378 150.437 258.075 151 257.468 151H217.038ZM385.717 147.75C386.324 147.75 386.627 148.27 386.627 149.31C386.627 150.437 386.324 151 385.717 151H358.807C355.34 144.413 350.964 136.44 345.677 127.08C340.39 117.72 335.927 110.44 332.287 105.24H330.077H321.497V138C321.497 141.727 322.494 144.283 324.487 145.67C326.48 147.057 329.167 147.75 332.547 147.75H334.367C334.974 147.75 335.277 148.27 335.277 149.31C335.277 150.437 334.974 151 334.367 151H294.067C293.46 151 293.157 150.437 293.157 149.31C293.157 148.27 293.46 147.75 294.067 147.75H295.887C299.354 147.75 302.04 147.057 303.947 145.67C305.94 144.283 306.937 141.727 306.937 138V68.71C306.937 64.9833 305.94 62.4267 303.947 61.04C301.954 59.6533 299.267 58.96 295.887 58.96H294.067C293.46 58.96 293.157 58.44 293.157 57.4C293.157 56.2733 293.46 55.71 294.067 55.71C304.9 55.5367 315.344 55.45 325.397 55.45C331.984 55.45 336.707 55.4933 339.567 55.58C345.287 55.6667 350.617 56.7067 355.557 58.7C360.584 60.6933 364.614 63.5533 367.647 67.28C370.68 70.92 372.197 75.1667 372.197 80.02C372.197 86 369.857 90.8967 365.177 94.71C360.497 98.5233 354.56 101.297 347.367 103.03C349.794 106.15 353.867 112.52 359.587 122.14C360.887 124.133 362.707 127.08 365.047 130.98C367.474 134.88 369.51 138 371.157 140.34C372.457 142.16 373.584 143.547 374.537 144.5C375.577 145.453 376.964 146.233 378.697 146.84C380.517 147.447 382.857 147.75 385.717 147.75ZM325.527 101.6C345.72 101.6 355.817 94.19 355.817 79.37C355.817 73.2167 353.607 68.3633 349.187 64.81C344.767 61.2567 339.177 59.48 332.417 59.48C328.95 59.48 326.264 60.0433 324.357 61.17C322.45 62.2967 321.497 64.4633 321.497 67.67V101.6H325.527ZM439.827 152.82C432.72 152.82 425.743 150.913 418.897 147.1C412.05 143.287 406.373 137.653 401.867 130.2C397.447 122.747 395.237 113.863 395.237 103.55C395.237 93.2367 397.447 84.3967 401.867 77.03C406.373 69.5767 412.05 63.9433 418.897 60.13C425.743 56.3167 432.72 54.41 439.827 54.41C446.847 54.41 453.78 56.3167 460.627 60.13C467.56 63.9433 473.237 69.5767 477.657 77.03C482.077 84.3967 484.287 93.2367 484.287 103.55C484.287 113.863 482.077 122.747 477.657 130.2C473.237 137.653 467.56 143.287 460.627 147.1C453.78 150.913 446.847 152.82 439.827 152.82ZM439.827 148.66C444.94 148.66 449.62 146.97 453.867 143.59C458.2 140.21 461.623 135.14 464.137 128.38C466.737 121.62 468.037 113.343 468.037 103.55C468.037 93.8433 466.737 85.61 464.137 78.85C461.623 72.09 458.2 67.0633 453.867 63.77C449.62 60.39 444.94 58.7 439.827 58.7C434.713 58.7 429.99 60.39 425.657 63.77C421.41 67.0633 417.987 72.09 415.387 78.85C412.873 85.61 411.617 93.8433 411.617 103.55C411.617 113.343 412.873 121.62 415.387 128.38C417.987 135.14 421.41 140.21 425.657 143.59C429.99 146.97 434.713 148.66 439.827 148.66ZM498.462 151C497.855 151 497.552 150.437 497.552 149.31C497.552 148.183 497.855 147.62 498.462 147.62H500.282C503.835 147.62 506.565 146.97 508.472 145.67C510.378 144.283 511.332 141.727 511.332 138V68.71C511.332 64.9833 510.335 62.4267 508.342 61.04C506.348 59.6533 503.662 58.96 500.282 58.96H498.462C497.855 58.96 497.552 58.3967 497.552 57.27C497.552 56.23 497.855 55.71 498.462 55.71H539.022C539.455 55.71 539.715 55.84 539.802 56.1C539.975 56.36 540.062 56.7933 540.062 57.4C540.062 58.44 539.715 58.96 539.022 58.96H537.332C533.865 58.96 531.135 59.6533 529.142 61.04C527.235 62.4267 526.282 64.9833 526.282 68.71V139.04C526.282 142.073 527.148 144.11 528.882 145.15C530.702 146.19 533.605 146.84 537.592 147.1L540.582 147.23L545.002 147.1C552.628 146.84 558.955 144.76 563.982 140.86C569.095 136.96 573.688 132.107 577.762 126.3C578.108 125.953 578.455 125.78 578.802 125.78C578.888 125.78 579.278 125.867 579.972 126.04C580.578 126.3 580.882 126.733 580.882 127.34L580.752 127.99L578.672 133.45L572.172 151H498.462ZM685.976 147.75C686.323 147.75 686.54 147.923 686.626 148.27C686.713 148.617 686.756 149.007 686.756 149.44C686.756 150.48 686.496 151 685.976 151H645.026C644.42 151 644.116 150.48 644.116 149.44C644.116 148.313 644.42 147.75 645.026 147.75C652.913 147.577 656.856 145.54 656.856 141.64C656.856 140.687 656.466 139.127 655.686 136.96L649.056 117.72H615.386L609.276 135.14C608.67 137.22 608.366 138.78 608.366 139.82C608.366 145.107 612.613 147.75 621.106 147.75C621.713 147.75 622.016 148.313 622.016 149.44C622.016 150.48 621.713 151 621.106 151H588.476C587.87 151 587.566 150.48 587.566 149.44C587.566 148.313 587.87 147.75 588.476 147.75C591.25 147.75 593.936 146.883 596.536 145.15C599.136 143.33 601.216 140.383 602.776 136.31C604.596 131.89 613.956 107.19 630.856 62.21L633.196 55.97L640.866 53.76C641.82 53.76 642.426 54.1933 642.686 55.06L647.886 70.14C651.093 79.24 655.47 91.85 661.016 107.97C666.563 124.003 669.856 133.407 670.896 136.18C672.196 139.473 673.54 141.943 674.926 143.59C676.313 145.237 677.83 146.363 679.476 146.97C681.21 147.49 683.376 147.75 685.976 147.75ZM647.366 112.91L632.806 70.53C630.64 75.9033 625.396 90.03 617.076 112.91H647.366ZM705.887 152.95C703.547 152.95 701.553 152.127 699.907 150.48C698.347 148.833 697.567 146.883 697.567 144.63C697.567 142.377 698.347 140.47 699.907 138.91C701.553 137.263 703.547 136.44 705.887 136.44C708.14 136.44 710.09 137.263 711.737 138.91C713.383 140.47 714.207 142.377 714.207 144.63C714.207 146.883 713.383 148.833 711.737 150.48C710.09 152.127 708.14 152.95 705.887 152.95Z" fill="#E0C28F"/>
<path d="M1606.78 55.71C1612.59 55.97 1618 57.0967 1623.03 59.09C1628.06 61.0833 1632.09 63.9433 1635.12 67.67C1638.15 71.3967 1639.67 75.7733 1639.67 80.8C1639.67 89.9867 1636.07 96.53 1628.88 100.43C1621.77 104.33 1613.45 106.497 1603.92 106.93C1602.01 107.017 1599.02 107.06 1594.95 107.06H1588.97V138C1588.97 141.727 1589.92 144.283 1591.83 145.67C1593.74 147.057 1596.47 147.75 1600.02 147.75H1601.84C1602.45 147.75 1602.75 148.27 1602.75 149.31C1602.75 150.437 1602.45 151 1601.84 151H1561.28C1560.67 151 1560.37 150.437 1560.37 149.31C1560.37 148.27 1560.67 147.75 1561.28 147.75H1563.1C1566.48 147.75 1569.17 147.057 1571.16 145.67C1573.15 144.283 1574.15 141.727 1574.15 138V68.71C1574.15 65.07 1573.15 62.5567 1571.16 61.17C1569.25 59.6967 1566.57 58.96 1563.1 58.96H1561.28C1560.67 58.96 1560.37 58.44 1560.37 57.4C1560.37 56.2733 1560.67 55.71 1561.28 55.71L1592.48 55.58C1600.8 55.58 1605.57 55.6233 1606.78 55.71ZM1598.85 103.29C1607.86 103.117 1614.19 100.993 1617.83 96.92C1621.47 92.8467 1623.29 87.3 1623.29 80.28C1623.29 74.9067 1621.9 70.66 1619.13 67.54C1616.36 64.42 1613.15 62.2967 1609.51 61.17C1605.96 59.9567 1602.71 59.35 1599.76 59.35C1596.64 59.35 1594.04 59.9133 1591.96 61.04C1589.97 62.1667 1588.97 64.3767 1588.97 67.67V103.42H1592.61C1595.73 103.42 1597.81 103.377 1598.85 103.29ZM1734.23 126.04C1734.93 126.3 1735.27 126.777 1735.27 127.47C1735.27 127.817 1735.06 128.51 1734.62 129.55C1732.02 136.137 1729.38 143.287 1726.69 151H1651.29C1650.6 151 1650.25 150.437 1650.25 149.31C1650.25 148.27 1650.6 147.75 1651.29 147.75H1652.98C1656.45 147.75 1659.14 147.057 1661.04 145.67C1663.04 144.283 1664.03 141.727 1664.03 138V68.71C1664.03 64.9833 1663.04 62.4267 1661.04 61.04C1659.05 59.6533 1656.36 58.96 1652.98 58.96H1651.29C1650.6 58.96 1650.25 58.3967 1650.25 57.27C1650.25 56.23 1650.6 55.71 1651.29 55.71H1723.18C1724.83 58.57 1726.65 61.8633 1728.64 65.59C1730.72 69.3167 1731.81 71.3967 1731.89 71.83C1731.98 72.0033 1732.02 72.22 1732.02 72.48C1732.02 72.9133 1731.72 73.26 1731.11 73.52C1730.85 73.6933 1730.51 73.78 1730.07 73.78C1729.55 73.78 1729.16 73.65 1728.9 73.39C1725.18 69.5767 1720.37 66.3267 1714.47 63.64C1708.58 60.8667 1702.47 59.48 1696.14 59.48H1693.41C1689.86 59.48 1687.13 59.6533 1685.22 60C1683.32 60.26 1681.8 60.9533 1680.67 62.08C1679.55 63.2067 1678.98 65.0267 1678.98 67.54V99.39H1689.77C1694.8 99.39 1698.14 99.3467 1699.78 99.26C1703.42 99.1733 1706.28 97.9167 1708.36 95.49C1710.53 92.9767 1711.61 90.03 1711.61 86.65C1711.61 86.3033 1711.74 86.0867 1712 86C1712.26 85.8267 1712.65 85.74 1713.17 85.74C1714.3 85.74 1714.86 86.0433 1714.86 86.65V116.81C1714.86 117.417 1714.3 117.72 1713.17 117.72C1712.65 117.72 1712.26 117.677 1712 117.59C1711.74 117.417 1711.61 117.157 1711.61 116.81C1711.61 113.43 1710.53 110.483 1708.36 107.97C1706.28 105.457 1703.42 104.157 1699.78 104.07C1698.14 103.983 1694.8 103.94 1689.77 103.94H1678.98V139.04C1678.98 142.073 1679.85 144.153 1681.58 145.28C1683.4 146.32 1686.31 146.97 1690.29 147.23C1691.33 147.317 1692.89 147.36 1694.97 147.36C1696.88 147.36 1698.4 147.317 1699.52 147.23C1704.9 146.883 1709.62 145.627 1713.69 143.46C1717.77 141.293 1721.15 138.867 1723.83 136.18C1726.52 133.407 1729.29 130.113 1732.15 126.3C1732.41 125.953 1732.8 125.78 1733.32 125.78C1733.58 125.78 1733.89 125.867 1734.23 126.04ZM1771.04 151C1770.52 151 1770.26 150.437 1770.26 149.31C1770.26 148.27 1770.52 147.75 1771.04 147.75H1772.86C1776.32 147.75 1779.01 147.057 1780.92 145.67C1782.91 144.197 1783.91 141.64 1783.91 138V67.67C1783.91 64.55 1783.04 62.3833 1781.31 61.17C1779.57 59.9567 1777.19 59.35 1774.16 59.35C1773.64 59.35 1772.68 59.4367 1771.3 59.61C1767.4 60.0433 1763.11 61.82 1758.43 64.94C1753.75 67.9733 1750.15 71.2667 1747.64 74.82C1747.2 75.34 1746.77 75.6 1746.34 75.6C1746.16 75.6 1745.9 75.5133 1745.56 75.34C1744.78 74.9933 1744.39 74.6467 1744.39 74.3C1744.39 74.04 1744.47 73.6933 1744.65 73.26C1745.25 71.5267 1746.21 68.8833 1747.51 65.33C1748.89 61.7767 1750.15 58.57 1751.28 55.71H1831.36L1835.52 66.63L1838.12 73.26L1838.25 74.3C1838.25 74.6467 1837.9 74.9933 1837.21 75.34C1836.86 75.5133 1836.56 75.6 1836.3 75.6C1835.78 75.6 1835.34 75.34 1835 74.82C1832.48 71.2667 1828.89 67.9733 1824.21 64.94C1819.53 61.82 1815.24 60.0433 1811.34 59.61C1809.95 59.4367 1809 59.35 1808.48 59.35C1805.36 59.35 1802.93 60 1801.2 61.3C1799.55 62.5133 1798.73 64.6367 1798.73 67.67V138C1798.73 141.727 1799.72 144.283 1801.72 145.67C1803.71 147.057 1806.4 147.75 1809.78 147.75H1811.47C1812.07 147.75 1812.38 148.27 1812.38 149.31C1812.38 150.437 1812.07 151 1811.47 151H1771.04ZM1939.72 147.75C1940.32 147.75 1940.63 148.27 1940.63 149.31C1940.63 150.437 1940.32 151 1939.72 151H1912.81C1909.34 144.413 1904.96 136.44 1899.68 127.08C1894.39 117.72 1889.93 110.44 1886.29 105.24H1884.08H1875.5V138C1875.5 141.727 1876.49 144.283 1878.49 145.67C1880.48 147.057 1883.17 147.75 1886.55 147.75H1888.37C1888.97 147.75 1889.28 148.27 1889.28 149.31C1889.28 150.437 1888.97 151 1888.37 151H1848.07C1847.46 151 1847.16 150.437 1847.16 149.31C1847.16 148.27 1847.46 147.75 1848.07 147.75H1849.89C1853.35 147.75 1856.04 147.057 1857.95 145.67C1859.94 144.283 1860.94 141.727 1860.94 138V68.71C1860.94 64.9833 1859.94 62.4267 1857.95 61.04C1855.95 59.6533 1853.27 58.96 1849.89 58.96H1848.07C1847.46 58.96 1847.16 58.44 1847.16 57.4C1847.16 56.2733 1847.46 55.71 1848.07 55.71C1858.9 55.5367 1869.34 55.45 1879.4 55.45C1885.98 55.45 1890.71 55.4933 1893.57 55.58C1899.29 55.6667 1904.62 56.7067 1909.56 58.7C1914.58 60.6933 1918.61 63.5533 1921.65 67.28C1924.68 70.92 1926.2 75.1667 1926.2 80.02C1926.2 86 1923.86 90.8967 1919.18 94.71C1914.5 98.5233 1908.56 101.297 1901.37 103.03C1903.79 106.15 1907.87 112.52 1913.59 122.14C1914.89 124.133 1916.71 127.08 1919.05 130.98C1921.47 134.88 1923.51 138 1925.16 140.34C1926.46 142.16 1927.58 143.547 1928.54 144.5C1929.58 145.453 1930.96 146.233 1932.7 146.84C1934.52 147.447 1936.86 147.75 1939.72 147.75ZM1879.53 101.6C1899.72 101.6 1909.82 94.19 1909.82 79.37C1909.82 73.2167 1907.61 68.3633 1903.19 64.81C1898.77 61.2567 1893.18 59.48 1886.42 59.48C1882.95 59.48 1880.26 60.0433 1878.36 61.17C1876.45 62.2967 1875.5 64.4633 1875.5 67.67V101.6H1879.53ZM1993.83 152.82C1986.72 152.82 1979.74 150.913 1972.9 147.1C1966.05 143.287 1960.37 137.653 1955.87 130.2C1951.45 122.747 1949.24 113.863 1949.24 103.55C1949.24 93.2367 1951.45 84.3967 1955.87 77.03C1960.37 69.5767 1966.05 63.9433 1972.9 60.13C1979.74 56.3167 1986.72 54.41 1993.83 54.41C2000.85 54.41 2007.78 56.3167 2014.63 60.13C2021.56 63.9433 2027.24 69.5767 2031.66 77.03C2036.08 84.3967 2038.29 93.2367 2038.29 103.55C2038.29 113.863 2036.08 122.747 2031.66 130.2C2027.24 137.653 2021.56 143.287 2014.63 147.1C2007.78 150.913 2000.85 152.82 1993.83 152.82ZM1993.83 148.66C1998.94 148.66 2003.62 146.97 2007.87 143.59C2012.2 140.21 2015.62 135.14 2018.14 128.38C2020.74 121.62 2022.04 113.343 2022.04 103.55C2022.04 93.8433 2020.74 85.61 2018.14 78.85C2015.62 72.09 2012.2 67.0633 2007.87 63.77C2003.62 60.39 1998.94 58.7 1993.83 58.7C1988.71 58.7 1983.99 60.39 1979.66 63.77C1975.41 67.0633 1971.99 72.09 1969.39 78.85C1966.87 85.61 1965.62 93.8433 1965.62 103.55C1965.62 113.343 1966.87 121.62 1969.39 128.38C1971.99 135.14 1975.41 140.21 1979.66 143.59C1983.99 146.97 1988.71 148.66 1993.83 148.66ZM2052.46 151C2051.85 151 2051.55 150.437 2051.55 149.31C2051.55 148.183 2051.85 147.62 2052.46 147.62H2054.28C2057.83 147.62 2060.56 146.97 2062.47 145.67C2064.38 144.283 2065.33 141.727 2065.33 138V68.71C2065.33 64.9833 2064.33 62.4267 2062.34 61.04C2060.35 59.6533 2057.66 58.96 2054.28 58.96H2052.46C2051.85 58.96 2051.55 58.3967 2051.55 57.27C2051.55 56.23 2051.85 55.71 2052.46 55.71H2093.02C2093.45 55.71 2093.71 55.84 2093.8 56.1C2093.97 56.36 2094.06 56.7933 2094.06 57.4C2094.06 58.44 2093.71 58.96 2093.02 58.96H2091.33C2087.86 58.96 2085.13 59.6533 2083.14 61.04C2081.23 62.4267 2080.28 64.9833 2080.28 68.71V139.04C2080.28 142.073 2081.15 144.11 2082.88 145.15C2084.7 146.19 2087.6 146.84 2091.59 147.1L2094.58 147.23L2099 147.1C2106.63 146.84 2112.95 144.76 2117.98 140.86C2123.09 136.96 2127.69 132.107 2131.76 126.3C2132.11 125.953 2132.45 125.78 2132.8 125.78C2132.89 125.78 2133.28 125.867 2133.97 126.04C2134.58 126.3 2134.88 126.733 2134.88 127.34L2134.75 127.99L2132.67 133.45L2126.17 151H2052.46ZM2239.98 147.75C2240.32 147.75 2240.54 147.923 2240.63 148.27C2240.71 148.617 2240.76 149.007 2240.76 149.44C2240.76 150.48 2240.5 151 2239.98 151H2199.03C2198.42 151 2198.12 150.48 2198.12 149.44C2198.12 148.313 2198.42 147.75 2199.03 147.75C2206.91 147.577 2210.86 145.54 2210.86 141.64C2210.86 140.687 2210.47 139.127 2209.69 136.96L2203.06 117.72H2169.39L2163.28 135.14C2162.67 137.22 2162.37 138.78 2162.37 139.82C2162.37 145.107 2166.61 147.75 2175.11 147.75C2175.71 147.75 2176.02 148.313 2176.02 149.44C2176.02 150.48 2175.71 151 2175.11 151H2142.48C2141.87 151 2141.57 150.48 2141.57 149.44C2141.57 148.313 2141.87 147.75 2142.48 147.75C2145.25 147.75 2147.94 146.883 2150.54 145.15C2153.14 143.33 2155.22 140.383 2156.78 136.31C2158.6 131.89 2167.96 107.19 2184.86 62.21L2187.2 55.97L2194.87 53.76C2195.82 53.76 2196.43 54.1933 2196.69 55.06L2201.89 70.14C2205.09 79.24 2209.47 91.85 2215.02 107.97C2220.56 124.003 2223.86 133.407 2224.9 136.18C2226.2 139.473 2227.54 141.943 2228.93 143.59C2230.31 145.237 2231.83 146.363 2233.48 146.97C2235.21 147.49 2237.38 147.75 2239.98 147.75ZM2201.37 112.91L2186.81 70.53C2184.64 75.9033 2179.4 90.03 2171.08 112.91H2201.37Z" fill="#E0C28F"/>
</svg>
